<?xml version="1.0" encoding="UTF-8"?>
<svg version="1.1" xmlns="http://www.w3.org/2000/svg" width="3001" height="3002">
<path d="M0 0 C0.93328125 0.69222656 1.8665625 1.38445312 2.828125 2.09765625 C34.04786269 26.51660313 50.70520859 58.03305542 56.58203125 96.84375 C61.40842013 138.16970479 49.63748998 183.65866506 23.73095703 216.48291016 C19.67378853 221.49747625 15.42815311 226.31181717 11 231 C10.24332031 231.82113281 9.48664062 232.64226562 8.70703125 233.48828125 C-10.10892369 253.22508228 -36.25341064 266.20502779 -63.6171875 267.12109375 C-70.40992997 266.87793553 -77.23311991 265.05578192 -82 260 C-85.58512782 254.80774591 -85.76688932 250.07173128 -85 244 C-82.31043198 233.86959567 -78.13144018 224.70411578 -73.29827881 215.45089722 C-60.8640185 191.56879171 -50.14888881 167.03137018 -47 140 C-46.89042969 139.11699219 -46.78085937 138.23398438 -46.66796875 137.32421875 C-43.50472882 106.83058586 -46.96486861 74.05329386 -66.3125 49.1875 C-81.88175899 31.16268674 -103.79451767 23.87589228 -127 22 C-180.78026022 18.42718551 -232.23475904 50.63702865 -271.20678711 84.42773438 C-278.90299769 91.17567122 -286.32202627 98.13984623 -293.5625 105.375 C-294.44357422 106.24382812 -295.32464844 107.11265625 -296.23242188 108.0078125 C-301.45452827 113.21835703 -306.25344631 118.6007512 -310.85913086 124.36206055 C-312.88049919 126.8527533 -314.97320713 129.24293237 -317.125 131.62109375 C-320.99255235 135.93100695 -324.53797817 140.42268674 -328 145.0625 C-328.63663574 145.91537598 -329.27327148 146.76825195 -329.92919922 147.64697266 C-392.2298374 231.99689699 -425.63023239 332.78528387 -428 450 C-427.98066406 450.90250488 -427.96132813 451.80500977 -427.94140625 452.73486328 C-426.77682233 505.13257674 -419.26040927 558.52629708 -396 606 C-395.45690186 607.1149585 -395.45690186 607.1149585 -394.90283203 608.25244141 C-381.57519998 635.29705207 -362.16247993 659.20550758 -337 676 C-336.39961914 676.40202637 -335.79923828 676.80405273 -335.18066406 677.21826172 C-297.03947334 702.33841042 -248.02109383 707.12514196 -203.96044922 698.39794922 C-189.45607709 695.30624608 -175.64231137 690.78781605 -162 685 C-160.89350098 684.53255371 -160.89350098 684.53255371 -159.76464844 684.05566406 C-135.10013979 673.4563186 -113.01492645 657.75007951 -93 640 C-92.0203125 639.13117187 -91.040625 638.26234375 -90.03125 637.3671875 C-84.44247959 632.32258684 -79.02595367 627.12107029 -73.6875 621.8125 C-73.12490479 621.25457764 -72.56230957 620.69665527 -71.98266602 620.12182617 C-37.5112637 585.51848562 -11.7598721 542.35489669 10 499 C10.51949219 497.97036133 11.03898438 496.94072266 11.57421875 495.87988281 C22.78275277 473.54205249 31.89599887 450.39366043 40.625 427 C56.08392114 385.75484022 77.98826172 348.08079585 107.74609375 315.4765625 C109.2742196 313.79747795 110.78685858 312.10419177 112.28515625 310.3984375 C116.2780869 305.86444077 120.31004199 301.64847249 124.93359375 297.7578125 C127.18746984 295.8405266 129.33492847 293.82937799 131.5 291.8125 C160.59954492 265.65410357 197.87416059 246.78318836 237.4375 246.75 C238.1562027 246.74932526 238.8749054 246.74865051 239.61538696 246.74795532 C264.06539134 246.78450037 287.36164894 252.49334177 305.28515625 270.1953125 C316.61552124 281.90063921 323.50382901 295.38172184 328 311 C330.88335667 307.51821081 333.464782 303.90545601 336.00830078 300.17578125 C342.01739271 291.41096501 348.46701164 283.49097797 356 276 C356.83144531 275.16855469 357.66289063 274.33710937 358.51953125 273.48046875 C364.72544162 267.59538089 371.53895042 263.14907147 379 259 C379.87140625 258.5153125 380.7428125 258.030625 381.640625 257.53125 C394.01671472 251.30524168 407.19714512 249.64909449 420.875 249.5625 C421.89609863 249.5524292 422.91719727 249.5423584 423.96923828 249.53198242 C434.3887679 249.65063479 446.64388157 251.32437717 454.71484375 258.53125 C461.09418845 265.39411472 462.53457026 272.21404423 462.41075134 281.42799377 C461.83127698 295.82266627 456.62993879 309.99099004 452.45837402 323.68045044 C445.12640343 347.77909626 438.30835203 372.00726744 431.72595215 396.32012939 C431.03309036 398.87784609 430.33762484 401.43484135 429.64160156 403.99169922 C415.02221312 457.79525265 401.77907119 512.59728011 395 568 C394.80736572 569.56572754 394.80736572 569.56572754 394.61083984 571.16308594 C390.19646509 605.67742515 390.19646509 605.67742515 400 638 C403.23474328 641.71995478 406.14755106 644.54823092 411.12109375 645.3359375 C429.8147733 645.65117662 444.99296963 634.27866978 458 622 C476.2764264 603.92468971 489.72689141 581.63132353 501.84277344 559.13818359 C502.93454511 557.12093965 504.04645761 555.11629459 505.1640625 553.11328125 C544.31063224 482.12833431 572.80164255 391.20968132 577.17578125 301.57421875 C577.18783096 300.84885925 577.19988068 300.12349976 577.21229553 299.37615967 C577.26052517 296.38933885 577.3082711 293.40295305 577.32592773 290.41577148 C577.39246869 280.93317278 577.59589506 273.76676117 583.578125 265.93359375 C598.42300361 252.64950845 620.76283904 248.94986393 640 249.62109375 C653.91552293 250.46694966 664.57084684 255.12555547 674.25 265.1875 C692.79407037 287.39551976 691.26625917 321.50909549 689.0546875 348.66577148 C686.87287748 372.53994423 682.43515507 396.1121469 677.47143555 419.54272461 C676.93719443 421.91034808 676.93719443 421.91034808 677 424 C677.36013184 423.38406982 677.72026367 422.76813965 678.09130859 422.13354492 C703.13288306 379.46706802 731.5073544 337.72844988 767 303 C769.44806053 300.56386184 771.88414848 298.1194101 774.2890625 295.640625 C780.18525957 289.60638988 786.33549752 284.16909531 793 279 C793.79736572 278.37206543 793.79736572 278.37206543 794.61083984 277.73144531 C822.12904321 256.18017893 852.02887166 243.0034996 887.51367188 247.3046875 C891.86242317 248.07604972 895.90276408 249.3743554 900 251 C901.03640625 251.40089844 902.0728125 251.80179688 903.140625 252.21484375 C919.61417822 259.50122306 931.37565753 274.60243407 938 291 C941.25320257 300.0608491 943.71549046 309.4557954 945 319 C945.11085938 319.77214844 945.22171875 320.54429687 945.3359375 321.33984375 C951.00163328 369.80451173 936.425229 419.63286621 925.21636963 466.25976562 C915.52751743 506.40736783 915.52751743 506.40736783 908 547 C907.78827148 548.26602051 907.78827148 548.26602051 907.57226562 549.55761719 C905.78647297 560.42827565 905.77844699 571.3843052 905.6875 582.375 C905.67278656 583.47459549 905.67278656 583.47459549 905.65777588 584.59640503 C905.5219171 596.67953556 906.41967776 607.56224748 913 618 C913 618.66 913 619.32 913 620 C920.5420072 623.95618681 926.59240759 624.56324798 934.82421875 622.16796875 C971.9100815 608.52876461 996.24620282 566.89962278 1014 534 C1014.6815918 532.73978027 1014.6815918 532.73978027 1015.37695312 531.45410156 C1043.30939014 479.18628236 1057.38627008 422.82538733 1061.43066406 364.03540039 C1063.94494214 328.82653655 1071.04755995 289.01487269 1098.88671875 264.453125 C1115.04231844 251.86654014 1132.59513154 246.81282435 1152.81713867 246.75976562 C1155.03148053 246.75013491 1157.24486285 246.71911267 1159.45898438 246.6875 C1169.98423421 246.60911215 1181.67214161 246.71312391 1190 254 C1193.86071931 258.73203761 1194.60843831 262.49146694 1194.4375 268.4375 C1194.4257373 269.26531982 1194.41397461 270.09313965 1194.40185547 270.94604492 C1194.20799638 278.23202878 1193.25706695 285.36249655 1192.23332214 292.57006836 C1188.46161346 319.75407212 1188.68167005 347.13218451 1188.73925781 374.51586914 C1188.75054415 379.92675952 1188.74394225 385.33745067 1188.73237419 390.74833393 C1183.12244897 511.4238279 1183.12244897 511.4238279 1220 620 C1222.14460916 622.35553653 1222.14460916 622.35553653 1225 623 C1237.70966709 621.98322663 1250.39855201 607.52645775 1258.12890625 598.51953125 C1260.45261797 595.70530435 1262.72592324 592.85445912 1265 590 C1265.92420208 588.87630349 1266.85005483 587.75396306 1267.77734375 586.6328125 C1275.25373644 577.53382003 1281.96711268 568.02271469 1288.50537109 558.23242188 C1289.84242415 556.23535995 1291.19280933 554.24849006 1292.55078125 552.265625 C1309.54687175 527.32375864 1324.28723207 500.8584281 1338 474 C1338.54817383 472.92854736 1338.54817383 472.92854736 1339.10742188 471.83544922 C1341.44891746 467.24488551 1343.73479143 462.62861431 1346 458 C1346.49628906 456.98953613 1346.99257812 455.97907227 1347.50390625 454.93798828 C1349.17668014 451.52471886 1350.83957514 448.10679196 1352.5 444.6875 C1353.04140625 443.58229004 1353.5828125 442.47708008 1354.140625 441.33837891 C1354.64078125 440.30245605 1355.1409375 439.2665332 1355.65625 438.19921875 C1356.10806641 437.26940186 1356.55988281 436.33958496 1357.02539062 435.3815918 C1358.18936999 432.9661308 1358.18936999 432.9661308 1358 430 C1357.34515625 429.67128906 1356.6903125 429.34257813 1356.015625 429.00390625 C1344.38302489 422.94115281 1334.51774453 414.9664612 1325 406 C1324.33613281 405.40058594 1323.67226562 404.80117187 1322.98828125 404.18359375 C1303.81475766 386.17681602 1292.52550507 360.69120934 1286.125 335.625 C1285.83834473 334.50496582 1285.83834473 334.50496582 1285.54589844 333.36230469 C1282.46749042 320.42852147 1281.61952065 307.5435158 1281.6875 294.3125 C1281.68932281 293.57087616 1281.69114563 292.82925232 1281.69302368 292.06515503 C1281.74209582 280.16268285 1282.41114062 268.64477104 1285 257 C1285.16628906 256.22237305 1285.33257813 255.44474609 1285.50390625 254.64355469 C1292.40843262 223.20238736 1309.38613249 190.74104264 1337.125 172.9375 C1359.45654899 159.27047953 1385.90852561 154.31010328 1411.81640625 158.6484375 C1415.36994898 159.53022859 1418.61945198 160.5994277 1422 162 C1423.76923828 162.7115625 1423.76923828 162.7115625 1425.57421875 163.4375 C1442.01249374 170.83028097 1453.91525375 184.37985926 1460.87890625 200.93359375 C1462.25508642 204.69771024 1463.5136589 208.48071032 1464.6875 212.3125 C1464.89020508 212.9631543 1465.09291016 213.61380859 1465.30175781 214.28417969 C1468.66931057 225.89352268 1469.36613642 237.78721478 1469.3125 249.8125 C1469.31034485 250.48085876 1469.3081897 251.14921753 1469.30596924 251.83782959 C1469.04364697 303.11500999 1452.21102932 353.93508618 1433 401 C1453.43626765 403.43064483 1472.3104716 400.90415615 1491 392 C1492.00643555 391.52651123 1492.00643555 391.52651123 1493.03320312 391.04345703 C1509.3366031 383.24305829 1523.05280959 372.51320637 1536 360 C1537.38445313 358.69289063 1537.38445313 358.69289063 1538.796875 357.359375 C1545.4565574 350.92544455 1551.09937615 344.0164413 1556.7109375 336.67382812 C1562.13719129 329.62791979 1567.90008319 322.89706395 1573.890625 316.328125 C1575.75675567 314.26846967 1577.57069788 312.17611105 1579.375 310.0625 C1587.1739108 301.14945908 1595.67798513 293.28939508 1605 286 C1606.26838081 284.97935509 1607.53659959 283.9585088 1608.8046875 282.9375 C1626.47568167 268.8827882 1645.65337157 258.30219008 1667.25 251.6875 C1668.04140381 251.44475342 1668.83280762 251.20200684 1669.64819336 250.9519043 C1681.0355404 247.63211157 1692.16949564 246.64995636 1703.97998047 246.68432617 C1706.23324497 246.68747657 1708.48517867 246.66396832 1710.73828125 246.63867188 C1735.50711793 246.53003589 1758.20440294 253.88887881 1776.34375 271.2421875 C1785.705072 281.02028068 1791.16997062 292.59538868 1795.87109375 305.11328125 C1796.72055255 307.85422116 1796.72055255 307.85422116 1798 309 C1798.44988281 308.29617188 1798.89976562 307.59234375 1799.36328125 306.8671875 C1816.06198673 281.23350334 1836.890926 258.07486014 1868 251 C1884.94822138 247.8296808 1905.77667923 246.41727572 1920.875 255.875 C1927.67600703 260.78417761 1930.44074985 265.82234991 1932 274 C1932.7763282 281.0430739 1932.06594375 287.62628505 1930.40625 294.48828125 C1930.23238266 295.21534271 1930.05851532 295.94240417 1929.87937927 296.6914978 C1927.61814795 305.88129458 1924.80700046 314.91102019 1922.03250122 323.95587158 C1897.20426801 405.07315036 1874.1990623 488.61145184 1864 573 C1863.8453125 574.17006592 1863.8453125 574.17006592 1863.6875 575.36376953 C1862.75759937 583.14670569 1862.77851857 590.96566332 1862.75976562 598.79345703 C1862.75007496 601.23114354 1862.71897051 603.66797946 1862.6875 606.10546875 C1862.59775423 619.32124686 1863.46530445 632.63108068 1871 644 C1874.05511651 647.05511651 1876.91475058 648.66616307 1881 650 C1896.70706847 649.58983078 1908.98702931 638.61016705 1919.37109375 627.93359375 C1929.07702893 617.10275078 1936.71315007 605.09782741 1943.69287109 592.37939453 C1944.94148593 590.10651441 1946.21382662 587.8483006 1947.48828125 585.58984375 C1956.07536498 570.09174655 1962.68582248 553.51442165 1968.91796875 536.94921875 C1969.31677246 535.90169434 1969.31677246 535.90169434 1969.72363281 534.83300781 C1970.37180238 533.1119447 1970.99772752 531.38254506 1971.62109375 529.65234375 C1973.30978085 526.40413258 1974.88185212 524.9095286 1978 523 C1983.48237751 521.99649618 1988.47621943 522.26532008 1993.5 524.6875 C2000.953988 531.5824389 2003.82051377 539.16784975 2004.390625 549.1953125 C2004.78400088 562.20457602 2003.31622668 574.43456631 2000 587 C1999.67257813 588.24394531 1999.34515625 589.48789063 1999.0078125 590.76953125 C1990.37360138 619.35066078 1973.25029581 643.52418196 1953 665 C1951.90558594 666.175625 1951.90558594 666.175625 1950.7890625 667.375 C1944.43636154 673.98747684 1937.35589996 679.55878316 1930 685 C1929.43071777 685.4242627 1928.86143555 685.84852539 1928.27490234 686.28564453 C1903.44137464 704.53112182 1873.36863322 715.15527989 1842.5690918 715.24023438 C1840.46687082 715.24986544 1838.36566126 715.28091711 1836.26367188 715.3125 C1812.75455925 715.49707768 1791.89885894 707.41028649 1775 691 C1774.32453125 690.39800781 1773.6490625 689.79601563 1772.953125 689.17578125 C1758.07946642 675.46226804 1750.13563988 655.61856522 1744.2265625 636.73046875 C1743.31419685 633.9555987 1742.42168939 631.5311386 1741 629 C1740.33355469 629.99257812 1739.66710938 630.98515625 1738.98046875 632.0078125 C1712.41484146 671.29843859 1678.06125531 704.77537095 1630.015625 714.30859375 C1598.92596088 719.84546537 1567.2431653 716.22255596 1541 698 C1510.0821891 675.46453837 1496.55977471 639.44916712 1490 603 C1489.83338867 602.09040527 1489.66677734 601.18081055 1489.49511719 600.24365234 C1483.96048325 568.1874651 1484.58804136 532.02295527 1490 500 C1490.25740967 498.42001221 1490.25740967 498.42001221 1490.52001953 496.80810547 C1494.54494935 472.64054204 1501.31615681 449.23153691 1509 426 C1507.79730469 426.74443359 1507.79730469 426.74443359 1506.5703125 427.50390625 C1482.14040369 442.2628046 1455.62162593 447.22873042 1427.375 447.0625 C1425.87890775 447.05747303 1424.38281387 447.05291225 1422.88671875 447.04882812 C1419.25777781 447.03792185 1415.62889973 447.02072382 1412 447 C1411.53013672 447.95028076 1411.06027344 448.90056152 1410.57617188 449.87963867 C1399.77170304 471.68239934 1388.51949816 493.12834779 1376 514 C1375.4225 514.96921387 1374.845 515.93842773 1374.25 516.93701172 C1352.53277289 553.3485122 1328.18338098 588.69473719 1300.59765625 620.93359375 C1298.27347258 623.65770986 1296.04076416 626.44669993 1293.8125 629.25 C1278.59731852 647.87918864 1261.06533479 666.32959628 1242 681 C1240.31201178 682.43692668 1238.62453539 683.87445477 1236.9375 685.3125 C1216.32204396 702.06804086 1191.48239649 717.15724723 1164.06542969 715.22314453 C1149.46160916 713.64537952 1138.24776946 703.74079115 1129 693 C1125.7407164 688.80723226 1122.83089895 684.48532042 1120 680 C1119.35675781 679.00226562 1118.71351562 678.00453125 1118.05078125 676.9765625 C1090.15974625 631.15153542 1080.28250536 571.60658657 1072.96987915 519.15563965 C1072.74229169 515.25556464 1072.74229169 515.25556464 1071 512 C1070.61013916 512.94576904 1070.61013916 512.94576904 1070.21240234 513.91064453 C1059.45210263 539.91353611 1048.06561257 565.59050685 1034 590 C1033.51321777 590.8470752 1033.02643555 591.69415039 1032.52490234 592.56689453 C1017.67275402 618.24373877 1000.46440172 642.47933124 980 664 C979.41331543 664.62068359 978.82663086 665.24136719 978.22216797 665.88085938 C952.25870732 693.17111685 921.28532111 712.76851724 883.03515625 715.1875 C858.93903099 715.7672564 835.07254796 708.49824238 817.45141602 691.71557617 C791.33550389 665.49291767 785.70167037 626.73942366 785.75561523 591.38208008 C786.15300041 550.99683791 796.05050693 511.26598531 804.50121689 471.98744392 C816.27957946 421.9878753 816.27957946 421.9878753 821.375 371.0625 C821.38926025 370.16732666 821.40352051 369.27215332 821.41821289 368.34985352 C821.37372939 362.58072736 820.42192727 358.25435068 818 353 C815.06389268 350.23167025 813.46830215 350.01643165 809.4375 349.875 C786.84495355 354.04787705 767.00726945 382.73777352 754 400 C753.20988525 401.03737305 753.20988525 401.03737305 752.40380859 402.09570312 C730.76648928 430.55821712 712.1584037 461.38988276 695.56396484 493.02783203 C694.10680398 495.79702909 692.62985909 498.5544294 691.14453125 501.30859375 C662.38118095 554.9268112 640.57289335 613.01794038 624.81497192 671.74513245 C623.89300173 675.16800633 622.95083087 678.58504263 622 682 C621.80122253 682.72018311 621.60244507 683.44036621 621.39764404 684.18237305 C620.79132691 686.35088514 620.16266879 688.51170414 619.52734375 690.671875 C619.1624585 691.93612305 618.79757324 693.20037109 618.42163086 694.50292969 C615.5867649 701.47641758 610.68806319 705.76489452 604 709 C593.98809983 713.07526641 583.67997608 714.2135004 573 715 C572.04996094 715.07347656 571.09992188 715.14695312 570.12109375 715.22265625 C556.40665142 715.74231387 543.96082341 711.30174039 533.91015625 702.0703125 C514.81855822 681.37798744 512.88465931 649.69230681 512 623 C511.63874023 623.50225098 511.27748047 624.00450195 510.90527344 624.52197266 C503.03465231 635.42797863 494.98350363 645.98835431 486 656 C485.51321777 656.54849609 485.02643555 657.09699219 484.52490234 657.66210938 C461.17868336 683.90833645 433.48266917 704.37056295 399 713 C398.07316406 713.23460937 397.14632812 713.46921875 396.19140625 713.7109375 C371.54517195 719.01699106 343.7278749 716.2557327 322 703 C294.61884643 684.35956741 282.02395604 656.95431489 273 626 C272.69408936 626.47195801 272.38817871 626.94391602 272.07299805 627.43017578 C261.85034171 643.14006322 250.94703153 657.44865158 238 671 C236.98873047 672.09054687 236.98873047 672.09054687 235.95703125 673.203125 C211.77707592 698.56887771 176.48587692 715.22146707 141.48046875 716.21484375 C111.32167285 716.7675078 85.92164352 710.51280085 63 690 C62.08541016 689.20916016 62.08541016 689.20916016 61.15234375 688.40234375 C36.40215569 665.52451034 26.21013046 629.44402996 21.1875 597.3125 C21.06334717 596.52343262 20.93919434 595.73436523 20.8112793 594.92138672 C19.99970039 589.25890183 19.87173127 583.71508452 20 578 C19.34 578 18.68 578 18 578 C17.73823975 578.8677002 17.47647949 579.73540039 17.20678711 580.62939453 C15.99444155 584.01552497 14.51937761 586.83704261 12.69140625 589.9296875 C12.03253418 591.04666016 11.37366211 592.16363281 10.69482422 593.31445312 C9.98475605 594.50172494 9.27396619 595.68856541 8.5625 596.875 C8.20174377 597.47981201 7.84098755 598.08462402 7.46929932 598.70776367 C1.67739593 608.40789418 -4.35240732 617.86180588 -11 627 C-11.55429687 627.76779785 -12.10859375 628.5355957 -12.6796875 629.32666016 C-19.5162664 638.78106663 -26.44092794 648.10773543 -34 657 C-34.47179687 657.56058105 -34.94359375 658.12116211 -35.4296875 658.69873047 C-45.74731991 670.95746567 -45.74731991 670.95746567 -51.42578125 676.4296875 C-53.21312444 678.2125956 -54.85267648 680.08721375 -56.5 682 C-61.53492721 687.81988245 -66.95827841 693.05103832 -72.7890625 698.06640625 C-75.2812389 700.24595981 -77.69838668 702.4977328 -80.125 704.75 C-86.4752593 710.53170992 -93.16650811 715.80398475 -100 721 C-100.58765137 721.44988281 -101.17530273 721.89976562 -101.78076172 722.36328125 C-139.20903855 750.89964392 -182.51985459 771.76150083 -229 780 C-229.81629883 780.16081055 -230.63259766 780.32162109 -231.47363281 780.48730469 C-261.25855197 786.26789124 -295.16803461 784.89807318 -325 780 C-326.58071289 779.75056641 -326.58071289 779.75056641 -328.19335938 779.49609375 C-389.96117484 769.503697 -449.24569468 739.03989973 -488 689 C-489.17949219 687.52853516 -489.17949219 687.52853516 -490.3828125 686.02734375 C-531.91440193 633.8260366 -551.40427336 566.53147205 -558 501 C-558.08613556 500.16568451 -558.17227112 499.33136902 -558.26101685 498.47177124 C-559.98756659 481.25108214 -560.34535716 464.10709926 -560.31567383 446.8190918 C-560.31105879 443.91040513 -560.31792748 441.00213838 -560.33618164 438.09350586 C-560.50452195 410.95077602 -558.8252962 384.17272169 -554.25 357.375 C-554.12338989 356.61626587 -553.99677979 355.85753174 -553.86633301 355.07580566 C-539.50156939 269.31608887 -502.83830364 183.89115707 -445.52734375 117.9296875 C-443.03670312 115.04254613 -440.63817759 112.09713333 -438.25 109.125 C-435.26579084 105.45580332 -432.18601953 102.05159879 -428.77661133 98.77758789 C-427.02662199 97.02663662 -425.42212577 95.21151077 -423.81640625 93.328125 C-419.91537702 88.84060259 -415.77702283 84.62926213 -411.5625 80.4375 C-410.85029297 79.72142578 -410.13808594 79.00535156 -409.40429688 78.26757812 C-404.7662768 73.63798315 -399.96744444 69.27132897 -395 65 C-393.84349272 63.97832494 -392.68849776 62.95493497 -391.53515625 61.9296875 C-382.35559368 53.82914687 -372.83872889 46.28309105 -363 39 C-362.3930127 38.55027832 -361.78602539 38.10055664 -361.16064453 37.63720703 C-326.17969359 11.86741862 -287.38712721 -8.69671567 -246 -22 C-245.09910645 -22.2897168 -244.19821289 -22.57943359 -243.27001953 -22.87792969 C-166.98366569 -47.02934915 -67.20125868 -49.90922748 0 0 Z M1372.57421875 224.6484375 C1354.77507894 251.23673071 1355.5359814 287.83562333 1361 318 C1364.65966536 335.82793277 1371.50394909 353.74598327 1383 368 C1402.95571302 348.04428698 1405.25647661 279.92997354 1405.4375 253.8125 C1405.4478125 252.60150635 1405.458125 251.3905127 1405.46875 250.14282227 C1405.36366994 239.68662666 1404.246674 228.14761185 1397 220 C1393.75047549 217.2635583 1390.67451393 216.09466862 1386.4375 215.5 C1380.37344335 216.3820446 1376.33086446 220.01425512 1372.57421875 224.6484375 Z M209.63378906 349.70214844 C160.85433463 412.05260793 131.46741327 505.16021733 140.5625 584.12890625 C143.04948519 603.59025876 148.05643501 624.57601144 163.90234375 637.55859375 C171.77583617 642.98470203 181.55341103 645.09114081 191 644 C213.14537309 639.59143036 228.92636773 620.59668274 240.88671875 602.7421875 C275.18371144 550.34306375 294.78870433 486.7613621 303 425 C303.11714355 424.13358887 303.23428711 423.26717773 303.35498047 422.37451172 C307.35032191 391.55754674 309.42347065 351.50494432 290 325 C284.42079555 318.59553822 277.60079478 314.74523607 269.15234375 313.62109375 C244.41022289 312.61054599 224.13395192 331.63654167 209.63378906 349.70214844 Z M1681.3359375 348.12890625 C1659.29974151 376.07639926 1644.04549551 408.71801816 1632 442 C1631.6484082 442.95890137 1631.29681641 443.91780273 1630.93457031 444.90576172 C1612.06590026 496.84425876 1596.74343725 563.74722775 1619.4296875 616.7578125 C1621.57119701 621.17933712 1623.99021476 625.12352267 1627 629 C1627.47179688 629.63421875 1627.94359375 630.2684375 1628.4296875 630.921875 C1634.68942911 638.83960222 1643.11943576 642.91045229 1653.0625 644.28515625 C1664.6424011 644.82212747 1676.09002891 638.63610023 1684.53515625 631.21142578 C1687.08904855 628.87226291 1689.55061046 626.44769622 1692 624 C1692.82113281 623.20207031 1693.64226563 622.40414063 1694.48828125 621.58203125 C1749.02883965 565.43471335 1773.94114259 459.93385326 1773.1484375 383.66015625 C1772.7122327 362.69729765 1770.48502837 338.08374369 1755.5625 321.9375 C1749.02286348 316.00174883 1741.6252765 313.60713919 1732.91015625 313.72265625 C1711.76071883 315.73824022 1694.34283108 332.51373113 1681.3359375 348.12890625 Z " fill="#367BDB" transform="translate(820,1072)"/>
<path d="M0 0 C0.98039632 3.07514899 0.99295885 4.94436405 0.08227539 8.02832031 C-0.14706696 8.82501129 -0.3764093 9.62170227 -0.61270142 10.4425354 C-1.00357437 11.74715225 -1.00357437 11.74715225 -1.40234375 13.078125 C-1.96095343 15.01115533 -2.51928865 16.94426499 -3.07739258 18.87744141 C-3.53077499 20.42833466 -3.53077499 20.42833466 -3.99331665 22.01055908 C-23.42976872 88.69595251 -40.65586714 156.95941209 -49 226 C-49.103125 226.78004395 -49.20625 227.56008789 -49.3125 228.36376953 C-50.24240063 236.14670569 -50.22148143 243.96566332 -50.24023438 251.79345703 C-50.24992504 254.23114354 -50.28102949 256.66797946 -50.3125 259.10546875 C-50.36918793 267.89923956 -49.79553699 275.75584523 -47.54980469 284.30371094 C-47 287 -47 287 -48 290 C-53.00716337 282.48925494 -53.19717478 270.83985829 -53.75 261.9375 C-53.79455322 261.24833496 -53.83910645 260.55916992 -53.88500977 259.84912109 C-54.10386887 255.42354273 -53.6318783 251.37049158 -53 247 C-52.97485315 245.53276525 -52.97352962 244.06498786 -52.9921875 242.59765625 C-53.04299031 238.15052898 -52.66124227 233.84819127 -52.125 229.4375 C-52.03476563 228.66301514 -51.94453125 227.88853027 -51.8515625 227.09057617 C-51.57394574 224.72625493 -51.28827335 222.3630435 -51 220 C-50.91459961 219.29327148 -50.82919922 218.58654297 -50.74121094 217.85839844 C-50.18075864 213.23631534 -49.59230409 208.61812095 -49 204 C-48.83293995 202.63806903 -48.66627512 201.27608952 -48.5 199.9140625 C-48.33360564 198.58850746 -48.16694855 197.26298536 -48 195.9375 C-47.855625 194.77089844 -47.71125 193.60429688 -47.5625 192.40234375 C-46.97144608 188.82728844 -46.0089439 185.47746674 -45 182 C-44.69232393 180.19338926 -44.42210501 178.38004434 -44.1875 176.5625 C-41.4516035 158.0795351 -36.8767106 139.86217267 -32.67919922 121.66748047 C-32.42470505 120.56370811 -32.42470505 120.56370811 -32.16506958 119.43763733 C-31.84591464 118.05483993 -31.52603662 116.67220914 -31.20529175 115.28977966 C-30.58144546 112.58988227 -29.97836302 109.89111928 -29.43823242 107.1730957 C-28.99389557 104.9697295 -28.336061 102.98325433 -27.5625 100.875 C-26.06207478 96.49814984 -25.18940016 92.13640095 -24.4296875 87.578125 C-24.00655458 85.03932749 -23.51693412 82.52118748 -23 80 C-22.34 80 -21.68 80 -21 80 C-21.33 79.01 -21.66 78.02 -22 77 C-21.4765625 74.765625 -21.4765625 74.765625 -20.625 72.25 C-19.30292668 68.13285844 -18.46658066 64.29254211 -18 60 C-17.34 60 -16.68 60 -16 60 C-16.05414062 58.71802734 -16.05414062 58.71802734 -16.109375 57.41015625 C-15.99303072 53.78270772 -15.29539593 50.90741033 -14.25 47.4375 C-13.88648437 46.21804688 -13.52296875 44.99859375 -13.1484375 43.7421875 C-12.76945312 42.50726562 -12.39046875 41.27234375 -12 40 C-11.46246094 38.24042969 -11.46246094 38.24042969 -10.9140625 36.4453125 C-10.23588618 34.23741517 -9.55501862 32.03034217 -8.87109375 29.82421875 C-7.60576846 25.72184123 -6.42724753 21.6009505 -5.3203125 17.453125 C-3.74108452 11.55951131 -2.00626985 5.76268999 0 0 Z " fill="#7914E5" transform="translate(2733,1419)"/>
<path d="M0 0 C0.66 0 1.32 0 2 0 C1.86722656 1.28132813 1.73445313 2.56265625 1.59765625 3.8828125 C-1.41413017 33.22637998 -4.5973463 66.18813791 6.69140625 94.35546875 C8 98 8 98 7 101 C2.35181715 95.36505207 0.95007072 88.12553037 0 81 C-1.01696367 73.7359738 -2.0940975 66.45933695 -3.5546875 59.26953125 C-4.16979985 54.75331159 -4.14442647 50.30227055 -4.125 45.75 C-4.12886719 44.85925781 -4.13273437 43.96851563 -4.13671875 43.05078125 C-4.12906664 37.77848012 -3.82517396 32.62776112 -3.24511719 27.38867188 C-2.7973086 23.02476828 -2.64818175 18.64034186 -2.48242188 14.2578125 C-2.23785729 9.27423237 -1.3350544 4.81051991 0 0 Z " fill="#5920D8" transform="translate(2431,1587)"/>
<path d="M0 0 C0.33 0 0.66 0 1 0 C0.54851863 9.46820924 -0.91511705 18.40166948 -3.0625 27.625 C-3.21284698 28.28299591 -3.36319397 28.94099182 -3.51809692 29.618927 C-6.71832582 43.60108715 -10.70612497 57.31442964 -15 71 C-15.33 71 -15.66 71 -16 71 C-15.88487847 69.27014758 -15.75744323 67.54111249 -15.625 65.8125 C-15.55539063 64.84957031 -15.48578125 63.88664062 -15.4140625 62.89453125 C-14.9884315 59.91912964 -14.17429242 57.7599866 -13 55 C-10.65319967 48.58541244 -8.97402498 42.10096516 -7.5 35.4375 C-7.28496826 34.48020996 -7.06993652 33.52291992 -6.84838867 32.53662109 C-5.28360932 25.4901119 -3.9083789 18.42264799 -2.625 11.3203125 C-1.9046722 7.49357104 -1.01758062 3.75722075 0 0 Z " fill="#5B3BE6" transform="translate(2285,1356)"/>
<path d="M0 0 C2.22337519 3.33506279 2.75550146 5.77926101 3.5625 9.6875 C3.81128906 10.86699219 4.06007813 12.04648438 4.31640625 13.26171875 C5.94822176 22.18541844 6.19722934 30.81252507 6.1875 39.875 C6.1882251 40.55998566 6.1889502 41.24497131 6.18969727 41.95071411 C6.18843502 52.73893852 5.63980434 63.32663071 4 74 C3.34 73.34 2.68 72.68 2 72 C2.18950338 69.08409321 2.4913016 66.26668814 2.875 63.375 C3.81758639 55.31436371 4.20382832 47.36517273 4.1875 39.25 C4.1879834 38.25145996 4.1884668 37.25291992 4.18896484 36.22412109 C4.40493055 26.85536934 4.40493055 26.85536934 2 18 C1.82079635 16.62894989 1.68010864 15.25270119 1.5625 13.875 C1.2438044 10.64624781 0.71760874 7.63292107 -0.125 4.5 C-0.41375 3.345 -0.7025 2.19 -1 1 C-0.67 0.67 -0.34 0.34 0 0 Z " fill="#503BE7" transform="translate(2283,1282)"/>
<path d="M0 0 C0.99 0.33 1.98 0.66 3 1 C2.49339844 2.54107422 2.49339844 2.54107422 1.9765625 4.11328125 C-3.10278464 19.7935827 -5.20013649 34.6817086 -5.0625 51.1875 C-5.05798828 52.23486328 -5.05347656 53.28222656 -5.04882812 54.36132812 C-5.03720124 56.90761536 -5.02086281 59.4537746 -5 62 C-5.99 62.495 -5.99 62.495 -7 63 C-9.35093508 46.83732131 -8.67257973 29.67337768 -4 14 C-3.65064873 12.46188397 -3.31473444 10.92057092 -3 9.375 C-2.29177826 6.08682764 -1.39004623 3.07795951 0 0 Z " fill="#4B3FE2" transform="translate(2184,1308)"/>
<path d="M0 0 C0.66 0 1.32 0 2 0 C-0.34289377 7.32924991 -3.10928413 14.43348454 -6 21.5625 C-8.74204033 28.34904982 -11.469068 35.13151678 -14 42 C-14.66 41.34 -15.32 40.68 -16 40 C-14.2195528 34.56495065 -12.38176705 29.15084199 -10.5 23.75 C-10.0978125 22.58984375 -9.695625 21.4296875 -9.28125 20.234375 C-8.09328536 17.23548866 -6.68311044 14.73839397 -5 12 C-4.25493105 10.28634142 -3.54526619 8.55677541 -2.875 6.8125 C-1.05960265 2.1192053 -1.05960265 2.1192053 0 0 Z " fill="#5523DA" transform="translate(2465,1477)"/>
<path d="M0 0 C0.66 0 1.32 0 2 0 C2.01458252 0.68400879 2.02916504 1.36801758 2.04418945 2.07275391 C2.36388384 19.47024419 2.36388384 19.47024419 5.4765625 36.5234375 C6 39 6 39 5 42 C-0.01846647 34.4723003 -0.19950563 22.79477511 -0.75 13.875 C-0.79455322 13.17745605 -0.83910645 12.47991211 -0.88500977 11.76123047 C-1.08514819 7.69453565 -0.81958426 3.98615983 0 0 Z " fill="#8617EE" transform="translate(2680,1667)"/>
<path d="M0 0 C0.33 0 0.66 0 1 0 C1.28774081 6.22545603 1.57246431 12.45104035 1.85449219 18.67675781 C1.95068454 20.79105276 2.04767591 22.90531153 2.14550781 25.01953125 C2.28665055 28.07282302 2.42484099 31.12623692 2.5625 34.1796875 C2.60624756 35.11239471 2.64999512 36.04510193 2.69506836 37.006073 C2.96205916 43.00832974 3.05113572 48.99206002 3 55 C2.67 55 2.34 55 2 55 C0.39751015 47.18786197 -0.17510295 39.81057708 0.02734375 31.8359375 C0.20779498 29.05011558 0.20779498 29.05011558 -1 27 C-1.42791032 17.97612647 -0.83561587 8.98287061 0 0 Z " fill="#2529DC" transform="translate(2008,1504)"/>
<path d="M0 0 C0.66 0 1.32 0 2 0 C1.36424474 5.02418479 -0.10886286 9.34529105 -1.94140625 14.0234375 C-2.22853989 14.76961334 -2.51567352 15.51578918 -2.81150818 16.28457642 C-3.72319126 18.65014423 -4.64270911 21.0125745 -5.5625 23.375 C-6.18476607 24.98547576 -6.80651636 26.59615092 -7.42773438 28.20703125 C-8.94586371 32.14035342 -10.47102353 36.07088236 -12 40 C-11.34 40.33 -10.68 40.66 -10 41 C-10.99 41 -11.98 41 -13 41 C-14.03873362 38.31076328 -14.04038235 37.1257569 -13.14453125 34.3359375 C-12.70496094 33.35882812 -12.26539062 32.38171875 -11.8125 31.375 C-11.34457031 30.30636719 -10.87664063 29.23773437 -10.39453125 28.13671875 C-9.93433594 27.10160156 -9.47414063 26.06648438 -9 25 C-5.53390348 16.81795059 -2.74696038 8.44352576 0 0 Z " fill="#5638E4" transform="translate(2265,1433)"/>
<path d="M0 0 C5.28653185 8.90251964 1.44305824 21.04525194 -0.9296875 30.4453125 C-2 34 -2 34 -4 37 C-5.15461134 33.53616599 -4.80240708 32.82698514 -3.625 29.5 C-0.89318131 20.89290002 -0.87812522 12.30116097 -1.0625 3.3359375 C-1 1 -1 1 0 0 Z " fill="#7215DD" transform="translate(2750,1342)"/>
<path d="M0 0 C0.66 0 1.32 0 2 0 C-0.2607254 9.68554436 -2.54834679 19.36054531 -5 29 C-5.99 29 -6.98 29 -8 29 C-6.95617402 23.52176001 -5.47154002 18.18847992 -4 12.8125 C-3.59007813 11.2975293 -3.59007813 11.2975293 -3.171875 9.75195312 C-2.90890625 8.78837891 -2.6459375 7.82480469 -2.375 6.83203125 C-2.01535156 5.51295776 -2.01535156 5.51295776 -1.6484375 4.16723633 C-1 2 -1 2 0 0 Z " fill="#5922D5" transform="translate(2443,1536)"/>
<path d="M0 0 C0.66 0 1.32 0 2 0 C1.94465088 0.63389648 1.88930176 1.26779297 1.83227539 1.92089844 C0.38576593 18.45786453 0.38576593 18.45786453 -1 35 C-1.66 34.67 -2.32 34.34 -3 34 C-3.09145316 27.86654143 -2.79844765 21.96092167 -2.0625 15.875 C-1.93198242 14.73611328 -1.93198242 14.73611328 -1.79882812 13.57421875 C-1.27179681 9.03784553 -0.66513161 4.51810118 0 0 Z " fill="#8B13E7" transform="translate(2683,1632)"/>
<path d="M0 0 C0.66 0 1.32 0 2 0 C1.39069293 7.95531903 -0.49733972 15.37028914 -2.5625 23.0625 C-3.0565332 24.93325195 -3.0565332 24.93325195 -3.56054688 26.84179688 C-4.36800418 29.8960919 -5.18128281 32.9487077 -6 36 C-6.33 36 -6.66 36 -7 36 C-7.0828413 34.64692538 -7.14000368 33.29227589 -7.1875 31.9375 C-7.22230469 31.18339844 -7.25710937 30.42929688 -7.29296875 29.65234375 C-6.89974464 26.09235481 -5.42159384 23.27979512 -4 20 C-3.3905687 17.47372493 -2.84857614 14.93022951 -2.375 12.375 C-2.13523437 11.10398437 -1.89546875 9.83296875 -1.6484375 8.5234375 C-1.43445312 7.36070313 -1.22046875 6.19796875 -1 5 C-0.67005144 3.33265995 -0.33824105 1.6656776 0 0 Z " fill="#6F10D4" transform="translate(2710,1499)"/>
<path d="M0 0 C0.66 0 1.32 0 2 0 C1.71776784 3.14675241 1.42244294 6.29215185 1.125 9.4375 C1.04636719 10.31599609 0.96773437 11.19449219 0.88671875 12.09960938 C0.33280099 17.87313683 -0.6349137 23.36184946 -2 29 C-3.18194894 24.86403894 -2.95738074 21.00154586 -2.6875 16.75 C-2.65205078 16.02425781 -2.61660156 15.29851562 -2.58007812 14.55078125 C-2.27758241 9.48510676 -1.3554305 4.89061455 0 0 Z " fill="#5E27DA" transform="translate(2431,1587)"/>
<path d="M0 0 C5.32182386 7.9827358 5.50201854 19.62421119 6 29 C5.34 28.67 4.68 28.34 4 28 C3.71073053 25.97511372 3.42727846 23.94755984 3.24609375 21.91015625 C3.09593122 19.91747967 3.09593122 19.91747967 2 18 C1.82079635 16.62894989 1.68010864 15.25270119 1.5625 13.875 C1.2438044 10.64624781 0.71760874 7.63292107 -0.125 4.5 C-0.41375 3.345 -0.7025 2.19 -1 1 C-0.67 0.67 -0.34 0.34 0 0 Z " fill="#5A33E2" transform="translate(2283,1282)"/>
<path d="M0 0 C0.33 0 0.66 0 1 0 C1.50488515 4.06190843 2.0030519 8.12461351 2.5 12.1875 C2.64308594 13.33798828 2.78617188 14.48847656 2.93359375 15.67382812 C3.06894531 16.78564453 3.20429687 17.89746094 3.34375 19.04296875 C3.46943359 20.06414795 3.59511719 21.08532715 3.72460938 22.13745117 C3.97897068 24.78141061 4.05115721 27.3462199 4 30 C3.34 30 2.68 30 2 30 C1.80083984 28.24623047 1.80083984 28.24623047 1.59765625 26.45703125 C1.41937987 24.90884161 1.24098839 23.36066522 1.0625 21.8125 C0.93198242 20.65911133 0.93198242 20.65911133 0.79882812 19.48242188 C0.43652393 16.35587088 0.06384443 13.29906077 -0.59375 10.21875 C-1.24362421 6.66943699 -0.54145812 3.54955881 0 0 Z " fill="#2C2CD9" transform="translate(2014,1597)"/>
<path d="M0 0 C0.66 0 1.32 0 2 0 C0.00386732 6.7186905 -2.7291421 12.80734808 -6 19 C-6.66 19 -7.32 19 -8 19 C-7.71125 18.46503906 -7.4225 17.93007812 -7.125 17.37890625 C-5.35901982 13.64459399 -4.24451123 9.71019368 -3 5.77734375 C-2 3 -2 3 0 0 Z " fill="#6228E5" transform="translate(2465,1477)"/>
<path d="M0 0 C0.66 0.33 1.32 0.66 2 1 C-0.64 6.28 -3.28 11.56 -6 17 C-6.66 16.67 -7.32 16.34 -8 16 C-6.42986223 10.03347646 -3.24970218 5.17090975 0 0 Z " fill="#6030ED" transform="translate(2476,1456)"/>
<path d="M0 0 C3.5532631 2.71965299 4.42132182 6.59059113 5.6875 10.6875 C5.91244141 11.38939453 6.13738281 12.09128906 6.36914062 12.81445312 C6.92096357 14.54036743 7.46159058 16.26985433 8 18 C7.34 18.66 6.68 19.32 6 20 C4.99422987 17.23113877 3.99519853 14.46015896 3 11.6875 C2.71382812 10.90181641 2.42765625 10.11613281 2.1328125 9.30664062 C1.86210937 8.54931641 1.59140625 7.79199219 1.3125 7.01171875 C1.06113281 6.31522217 0.80976563 5.61872559 0.55078125 4.90112305 C0 3 0 3 0 0 Z " fill="#701EF1" transform="translate(2610,1366)"/>
<path d="M0 0 C0.66 0.33 1.32 0.66 2 1 C-3.445 9.415 -3.445 9.415 -9 18 C-9.33 17.01 -9.66 16.02 -10 15 C-8.671875 12.44140625 -8.671875 12.44140625 -6.75 9.5625 C-6.12609375 8.61503906 -5.5021875 7.66757813 -4.859375 6.69140625 C-3.28849669 4.4175929 -1.68022983 2.19363339 0 0 Z " fill="#551FD4" transform="translate(2493,1429)"/>
<path d="M0 0 C0.66 0 1.32 0 2 0 C2 5.28 2 10.56 2 16 C1.34 16 0.68 16 0 16 C-0.71033431 10.47032059 -1.30267176 5.50016964 0 0 Z " fill="#4112F2" transform="translate(2680,1667)"/>
<path d="M0 0 C0.66 0.33 1.32 0.66 2 1 C-0.64 4.63 -3.28 8.26 -6 12 C-7 9 -7 9 -5.8125 6.5625 C-4.06020951 4.08512378 -2.21684517 2.0639593 0 0 Z " fill="#5635CE" transform="translate(2133,1674)"/>
<path d="M0 0 C1.78409802 3.06246747 2.22880021 5.22079273 2.125 8.75 C2.10695313 9.54921875 2.08890625 10.3484375 2.0703125 11.171875 C2.04710938 11.77515625 2.02390625 12.3784375 2 13 C0.00203045 10.00304568 -0.34510261 8.82142616 -0.6875 5.375 C-0.77386719 4.57835937 -0.86023437 3.78171875 -0.94921875 2.9609375 C-0.96597656 2.31382813 -0.98273437 1.66671875 -1 1 C-0.67 0.67 -0.34 0.34 0 0 Z " fill="#9613E0" transform="translate(2750,1342)"/>
<path d="M0 0 C0.33 0 0.66 0 1 0 C1.66 4.62 2.32 9.24 3 14 C2.34 14 1.68 14 1 14 C-0.512545 8.83955235 -1.33500455 5.34001821 0 0 Z " fill="#2B2BE3" transform="translate(2019,1634)"/>
<path d="M0 0 C0.33 0.99 0.66 1.98 1 3 C-0.21484375 5.04296875 -0.21484375 5.04296875 -1.9375 7.1875 C-2.50339844 7.90292969 -3.06929687 8.61835937 -3.65234375 9.35546875 C-4.09707031 9.89816406 -4.54179687 10.44085937 -5 11 C-5.33 10.01 -5.66 9.02 -6 8 C-4.78515625 5.95703125 -4.78515625 5.95703125 -3.0625 3.8125 C-2.49660156 3.09707031 -1.93070313 2.38164063 -1.34765625 1.64453125 C-0.90292969 1.10183594 -0.45820313 0.55914063 0 0 Z " fill="#5937EE" transform="translate(2149,1653)"/>
<path d="M0 0 C0.66 0 1.32 0 2 0 C3.10228696 4.40914783 3.07654536 8.48382401 3 13 C0.60295435 8.84512088 0 4.75860702 0 0 Z " fill="#7B34E9" transform="translate(2427,1640)"/>
<path d="M0 0 C0.66 0 1.32 0 2 0 C1.25 7.75 1.25 7.75 -1 10 C-2.27351308 7.45297384 -1.80191925 6.5717055 -1.0625 3.875 C-0.86785156 3.15054687 -0.67320312 2.42609375 -0.47265625 1.6796875 C-0.31667969 1.12539062 -0.16070313 0.57109375 0 0 Z " fill="#6F2EEB" transform="translate(2431,1587)"/>
<path d="M0 0 C0.33 0 0.66 0 1 0 C0.67 4.29 0.34 8.58 0 13 C-0.33 13 -0.66 13 -1 13 C-2.42857143 4.57142857 -2.42857143 4.57142857 0 0 Z " fill="#262BDB" transform="translate(2013,1345)"/>
<path d="M0 0 C0.66 0 1.32 0 2 0 C0.68775452 3.93673644 -0.91910327 6.22719294 -4 9 C-3.4739075 5.21213403 -2.61896089 2.82847776 0 0 Z " fill="#2837CE" transform="translate(1825,1702)"/>
</svg>
