<?xml version="1.0" encoding="UTF-8"?>
<svg version="1.1" xmlns="http://www.w3.org/2000/svg" width="2560" height="960">
<path d="M0 0 C0.83015625 0.69609375 1.6603125 1.3921875 2.515625 2.109375 C28.73164533 24.78703675 43.70993381 58.31899137 46.8190918 92.45019531 C49.82488772 134.81528651 38.29615431 179.6667819 10.65917969 212.59765625 C7.55046269 216.17481006 4.289716 219.58947522 1 223 C0.14921875 223.92554688 -0.7015625 224.85109375 -1.578125 225.8046875 C-19.93347625 245.20420544 -45.75232225 258.19138512 -72.59375 259.125 C-79.39590922 258.87537948 -86.2246081 257.06480959 -91 252 C-94.58512782 246.80774591 -94.76688932 242.07173128 -94 236 C-91.31043198 225.86959567 -87.13144018 216.70411578 -82.29827881 207.45089722 C-69.8640185 183.56879171 -59.14888881 159.03137018 -56 132 C-55.89042969 131.11699219 -55.78085937 130.23398438 -55.66796875 129.32421875 C-52.50472882 98.83058586 -55.96486861 66.05329386 -75.3125 41.1875 C-90.88175899 23.16268674 -112.79451767 15.87589228 -136 14 C-185.64203922 10.70210229 -235.2117396 38.15227841 -272 69 C-272.836521 69.69440186 -272.836521 69.69440186 -273.68994141 70.40283203 C-286.81221485 81.32514064 -300.27089161 92.79895498 -311.375 105.8125 C-313.94748973 108.80230473 -316.57990115 111.72209893 -319.25 114.625 C-324.83653123 120.82595514 -329.92496861 127.38024525 -335 134 C-335.4837207 134.62680664 -335.96744141 135.25361328 -336.46582031 135.89941406 C-356.64434167 162.09819393 -373.23879885 190.44419051 -388 220 C-388.43006348 220.85223145 -388.86012695 221.70446289 -389.30322266 222.58251953 C-415.53922535 274.80589365 -430.76268836 333.89466998 -436 392 C-436.14139404 393.41986206 -436.14139404 393.41986206 -436.28564453 394.8684082 C-437.41394304 407.81356472 -437.24393415 420.82901315 -437.25 433.8125 C-437.25067474 435.10789703 -437.25134949 436.40329407 -437.25204468 437.73794556 C-437.2355559 457.67780567 -436.71182093 477.22619552 -434 497 C-433.82839355 498.28680664 -433.65678711 499.57361328 -433.47998047 500.89941406 C-425.59135786 559.02070362 -405.29555903 623.05053247 -357.05761719 660.50830078 C-318.93093005 689.27006406 -271.9312266 698.75930891 -224.90649414 692.47851562 C-206.19524225 689.68068661 -188.39381567 684.37940975 -171 677 C-169.89350098 676.53255371 -169.89350098 676.53255371 -168.76464844 676.05566406 C-144.10013979 665.4563186 -122.01492645 649.75007951 -102 632 C-101.0203125 631.13117187 -100.040625 630.26234375 -99.03125 629.3671875 C-93.44247959 624.32258684 -88.02595367 619.12107029 -82.6875 613.8125 C-82.12490479 613.25457764 -81.56230957 612.69665527 -80.98266602 612.12182617 C-46.5112637 577.51848562 -20.7598721 534.35489669 1 491 C1.51949219 489.97036133 2.03898438 488.94072266 2.57421875 487.87988281 C13.78275277 465.54205249 22.89599887 442.39366043 31.625 419 C47.08392114 377.75484022 68.98826172 340.08079585 98.74609375 307.4765625 C100.2742196 305.79747795 101.78685858 304.10419177 103.28515625 302.3984375 C107.2780869 297.86444077 111.31004199 293.64847249 115.93359375 289.7578125 C118.18746984 287.8405266 120.33492847 285.82937799 122.5 283.8125 C157.26553211 252.5607889 198.35945585 236.76030082 245 239 C251.22942966 239.64794068 257.04950635 241.08352633 263 243 C264.16917969 243.36222656 265.33835937 243.72445313 266.54296875 244.09765625 C286.99718144 251.17150472 301.01984044 266.26893417 310.8125 285 C313.93948134 291.47212418 316.14526932 298.06492008 318 305 C320.84384735 301.54450477 323.37566701 298.00202799 325.8125 294.25 C337.46494032 276.66384469 351.36963229 261.26852573 370 251 C370.87011719 250.51660156 371.74023438 250.03320312 372.63671875 249.53515625 C389.90329395 240.83576385 414.18179909 238.20082376 432.6640625 244.02734375 C440.2921038 247.2035683 446.84819149 251.88017975 450.1328125 259.6953125 C454.14459459 274.98345504 449.43945993 290.38876285 445 305 C444.65678711 306.1348584 444.31357422 307.2697168 443.95996094 308.43896484 C442.60388695 312.91134291 441.24519007 317.38291194 439.87478638 321.85092163 C433.15062085 343.77554142 427.05615304 365.8831092 421 388 C420.7484314 388.91843689 420.49686279 389.83687378 420.2376709 390.78314209 C381.40565094 508.89184209 381.40565094 508.89184209 388 628 C390.72902032 632.48404686 393.99011685 635.33003895 399 637 C413.52757729 638.93860587 426.36820429 632.25080673 437.65722656 623.75244141 C461.99966647 604.79163898 478.40019092 577.95084395 492.84277344 551.13818359 C493.93454511 549.12093965 495.04645761 547.11629459 496.1640625 545.11328125 C535.31063224 474.12833431 563.80164255 383.20968132 568.17578125 293.57421875 C568.18783096 292.84885925 568.19988068 292.12349976 568.21229553 291.37615967 C568.26052517 288.38933885 568.3082711 285.40295305 568.32592773 282.41577148 C568.39246869 272.93317278 568.59589506 265.76676117 574.578125 257.93359375 C589.2856056 244.77246041 611.34799979 241.02180115 630.421875 241.68359375 C643.56886099 242.43585156 654.16066056 247.1614113 663.19140625 256.828125 C681.82037174 279.19897772 680.29093445 313.37831848 678.05224609 340.6730957 C675.99449494 363.13715618 671.96515909 385.2873175 667.2355957 407.32397461 C667.0870816 408.01826065 666.9385675 408.71254669 666.78555298 409.4278717 C666.3818852 411.30673283 665.97274952 413.18441683 665.56323242 415.06201172 C664.90586085 417.99247637 664.90586085 417.99247637 665 421 C665.45101074 420.23260498 665.90202148 419.46520996 666.36669922 418.67456055 C692.41452159 374.4838294 721.16409864 331.04278387 758 295 C760.44806053 292.56386184 762.88414848 290.1194101 765.2890625 287.640625 C771.18525957 281.60638988 777.33549752 276.16909531 784 271 C784.79736572 270.37206543 784.79736572 270.37206543 785.61083984 269.73144531 C812.65272296 248.55321581 840.3901146 236.74748549 875 239 C879.9359 239.63505188 884.41814088 241.06664939 889 243 C890.01578125 243.40089844 891.0315625 243.80179687 892.078125 244.21484375 C910.5426856 252.38186094 921.10141035 269.13769254 928.29296875 287.2578125 C929.36958993 290.48355104 930.22547142 293.68860968 931 297 C931.29777344 298.25425781 931.59554688 299.50851562 931.90234375 300.80078125 C937.0448334 325.51642199 934.88634075 353.28599005 931 378 C930.80615723 379.23459961 930.61231445 380.46919922 930.41259766 381.74121094 C925.83047589 409.80453225 918.78490091 437.37394121 912.1229248 464.99689484 C891.05304981 536.32835924 891.05304981 536.32835924 899.25 607.25 C902.64979207 612.56788372 906.58017716 614.3847908 912.6875 615.9375 C926.5855202 616.97985151 939.9634431 608.36356708 950.0546875 599.69921875 C973.18296014 578.50341451 990.13422956 553.54781047 1005 526 C1005.6815918 524.73978027 1005.6815918 524.73978027 1006.37695312 523.45410156 C1034.30939014 471.18628236 1048.38627008 414.82538733 1052.43066406 356.03540039 C1054.94494214 320.82653655 1062.04755995 281.01487269 1089.88671875 256.453125 C1105.84431945 244.02079818 1123.33144745 238.81586391 1143.33496094 238.70483398 C1144.76409874 238.69339186 1146.19319648 238.67306505 1147.62207031 238.64331055 C1159.11903217 238.40456853 1171.12488064 238.74535018 1180 247 C1183.07783961 251.9810511 1183.37622408 257.2764294 1182.875 263 C1182.79366821 264.16039795 1182.79366821 264.16039795 1182.71069336 265.34423828 C1182.30952407 270.54048212 1181.67088961 275.69257573 1180.96887207 280.85560608 C1179.5168372 291.64440182 1178.51833734 302.40945592 1177.91796875 313.27734375 C1177.8750042 314.04541666 1177.83203964 314.81348957 1177.78777313 315.60483742 C1176.77947749 334.07261225 1176.68383803 352.52805074 1176.74205017 371.01884842 C1176.75015522 373.73960619 1176.75508664 376.46035558 1176.75939941 379.18112183 C1170.48512365 501.41631223 1170.48512365 501.41631223 1207.59765625 610.7890625 C1210.96562707 613.88869093 1212.49145746 615 1217.125 615 C1236.64075887 611.23742785 1252.8728451 586.62577223 1264 572 C1264.54317871 571.28666504 1265.08635742 570.57333008 1265.64599609 569.83837891 C1290.14944787 537.49606224 1310.57274517 502.0924287 1329 466 C1329.54817383 464.92854736 1329.54817383 464.92854736 1330.10742188 463.83544922 C1332.44891746 459.24488551 1334.73479143 454.62861431 1337 450 C1337.49628906 448.98953613 1337.99257812 447.97907227 1338.50390625 446.93798828 C1340.17668014 443.52471886 1341.83957514 440.10679196 1343.5 436.6875 C1344.04140625 435.58229004 1344.5828125 434.47708008 1345.140625 433.33837891 C1345.64078125 432.30245605 1346.1409375 431.2665332 1346.65625 430.19921875 C1347.10806641 429.26940186 1347.55988281 428.33958496 1348.02539062 427.3815918 C1349.18936999 424.9661308 1349.18936999 424.9661308 1349 422 C1348.34515625 421.67128906 1347.6903125 421.34257812 1347.015625 421.00390625 C1335.38302489 414.94115281 1325.51774453 406.9664612 1316 398 C1315.33613281 397.40058594 1314.67226562 396.80117188 1313.98828125 396.18359375 C1294.81475766 378.17681602 1283.52550507 352.69120934 1277.125 327.625 C1276.83834473 326.50496582 1276.83834473 326.50496582 1276.54589844 325.36230469 C1273.46749042 312.42852147 1272.61952065 299.5435158 1272.6875 286.3125 C1272.68932281 285.57087616 1272.69114563 284.82925232 1272.69302368 284.06515503 C1272.74209582 272.16268285 1273.41114062 260.64477104 1276 249 C1276.16628906 248.22237305 1276.33257813 247.44474609 1276.50390625 246.64355469 C1283.40843262 215.20238736 1300.38613249 182.74104264 1328.125 164.9375 C1349.97056705 151.56790292 1375.2989837 146.35424691 1400.71875 150.6484375 C1413.85090496 153.87629912 1424.55001832 160.44930803 1434 170 C1434.61230469 170.57878906 1435.22460938 171.15757812 1435.85546875 171.75390625 C1445.11546638 181.22580314 1451.07591698 195.28466928 1454 208 C1454.29648438 209.20269531 1454.59296875 210.40539062 1454.8984375 211.64453125 C1467.89537263 270.84150921 1443.81186483 338.98955532 1421 393 C1442.55255303 395.32226166 1462.22935666 393.41922619 1482 384 C1483.00643555 383.52651123 1483.00643555 383.52651123 1484.03320312 383.04345703 C1500.3366031 375.24305829 1514.05280959 364.51320637 1527 352 C1528.38445313 350.69289063 1528.38445313 350.69289063 1529.796875 349.359375 C1536.4565574 342.92544455 1542.09937615 336.0164413 1547.7109375 328.67382812 C1553.13719129 321.62791979 1558.90008319 314.89706395 1564.890625 308.328125 C1566.75675567 306.26846967 1568.57069788 304.17611105 1570.375 302.0625 C1578.1739108 293.14945908 1586.67798513 285.28939508 1596 278 C1597.26838081 276.97935509 1598.53659959 275.9585088 1599.8046875 274.9375 C1617.47568167 260.8827882 1636.65337157 250.30219008 1658.25 243.6875 C1659.04140381 243.44475342 1659.83280762 243.20200684 1660.64819336 242.9519043 C1672.40153861 239.52541084 1683.94881235 238.59223056 1696.125 238.625 C1696.85133636 238.62521149 1697.57767273 238.62542297 1698.32601929 238.62564087 C1722.12654237 238.69474751 1744.90123139 244.63497228 1762.62890625 261.51171875 C1772.97819512 272.37250459 1785 290.39047885 1785 306 C1785.66 306 1786.32 306 1787 306 C1787.25910156 305.28714844 1787.51820313 304.57429688 1787.78515625 303.83984375 C1798.13474324 279.64643622 1822.12967358 257.13713862 1846 247 C1862.50575945 240.50487648 1884.74518573 237.93408231 1901.79296875 244.00390625 C1909.79009007 247.61322649 1914.649691 251.77379487 1918 260 C1922.70376109 274.29574449 1917.09813493 290.32854853 1913 304 C1912.80343811 304.65597168 1912.60687622 305.31194336 1912.40435791 305.98779297 C1910.54260336 312.19546085 1908.67003612 318.39987944 1906.79418945 324.603302 C1864.88196662 459.29076599 1864.88196662 459.29076599 1855.3125 630.6875 C1858.55508764 636.48131275 1862.63012948 639.90502036 1869 642 C1883.64666763 642.67496164 1894.28494764 634.83858779 1904.78515625 625.53125 C1917.25520914 613.6174153 1926.43876377 599.42001141 1934.69287109 584.37939453 C1935.94148593 582.10651441 1937.21382662 579.8483006 1938.48828125 577.58984375 C1947.07536498 562.09174655 1953.68582248 545.51442165 1959.91796875 528.94921875 C1960.31677246 527.90169434 1960.31677246 527.90169434 1960.72363281 526.83300781 C1961.37180238 525.1119447 1961.99772752 523.38254506 1962.62109375 521.65234375 C1964.28967393 518.4428085 1965.95577982 516.93103519 1969 515 C1973.52175411 513.93050685 1977.18225265 514.59884092 1981.3125 516.625 C1987.73396849 522.29978611 1990.4339219 529.53591868 1991.30493164 537.94335938 C1991.43858126 541.11443125 1991.46750334 544.26376074 1991.4375 547.4375 C1991.42505249 549.14993896 1991.42505249 549.14993896 1991.41235352 550.89697266 C1991.21327464 561.00111137 1989.84399354 570.31727055 1987 580 C1986.76925781 580.79535156 1986.53851562 581.59070313 1986.30078125 582.41015625 C1980.88038025 600.50683896 1972.22520535 617.79302369 1961 633 C1960.4136377 633.79615723 1960.4136377 633.79615723 1959.81542969 634.60839844 C1942.24898072 658.24350445 1921.1012561 677.19925783 1895 691 C1894.3611084 691.33918457 1893.7222168 691.67836914 1893.06396484 692.02783203 C1873.33681986 702.32467556 1852.35300747 707.36903105 1830.125 707.3125 C1828.86558594 707.32861328 1827.60617188 707.34472656 1826.30859375 707.36132812 C1803.11082834 707.37324887 1782.60767325 699.12751943 1766 683 C1765.32453125 682.39800781 1764.6490625 681.79601562 1763.953125 681.17578125 C1746.29193666 664.8921656 1737.47987804 639.7645401 1732 617 C1728.63799808 621.0611098 1725.69380353 625.32306523 1722.75 629.6875 C1718.42369375 636.02835673 1713.9411978 642.11934229 1709 648 C1708.11057214 649.08715373 1707.22125701 650.1743997 1706.33203125 651.26171875 C1682.17050374 680.47756782 1648.4609972 703.13502586 1610.1328125 707.71484375 C1577.79824876 710.29199632 1548.93971806 704.97422279 1523.68359375 683.45703125 C1498.42718009 660.33289123 1486.93514971 627.97845937 1481 595 C1480.83338867 594.09040527 1480.66677734 593.18081055 1480.49511719 592.24365234 C1474.96048325 560.1874651 1475.58804136 524.02295527 1481 492 C1481.25740967 490.42001221 1481.25740967 490.42001221 1481.52001953 488.80810547 C1485.67289705 463.87228413 1492.70016721 439.84291959 1501 416 C1500.00742188 416.58007812 1499.01484375 417.16015625 1497.9921875 417.7578125 C1467.50295354 435.37902424 1435.14508196 442.48352897 1400 438 C1399.75894531 438.80566406 1399.51789063 439.61132812 1399.26953125 440.44140625 C1397.71891227 444.78791052 1395.7600218 448.81934053 1393.6875 452.9375 C1393.25308594 453.80358887 1392.81867188 454.66967773 1392.37109375 455.56201172 C1387.40993383 465.33277927 1381.96488301 474.82130292 1376.51806641 484.32666016 C1374.75720669 487.427563 1373.04877598 490.5544819 1371.34643555 493.68774414 C1361.27154672 512.15872738 1349.92862663 529.84810151 1338.125 547.25 C1337.69287201 547.88722992 1337.26074402 548.52445984 1336.81552124 549.18099976 C1328.24170549 561.79928009 1319.45811711 574.25691119 1310.1875 586.375 C1309.1651123 587.71316772 1309.1651123 587.71316772 1308.12207031 589.07836914 C1295.32290363 605.76054642 1281.89684629 621.93356858 1267.56152344 637.32080078 C1265.78786321 639.22812333 1264.02321112 641.14362292 1262.2578125 643.05859375 C1260.94310362 644.476929 1259.62800224 645.89490055 1258.3125 647.3125 C1257.70688232 647.97040527 1257.10126465 648.62831055 1256.47729492 649.30615234 C1252.79530416 653.25509866 1248.95866241 656.88089212 1244.85961914 660.39428711 C1242.35208668 662.55944938 1239.96651962 664.84600369 1237.5625 667.125 C1216.92349293 686.24327346 1188.25121569 707.89291303 1158.83374023 707.47070312 C1143.5549455 706.77139371 1132.95758913 698.63869765 1122.6640625 688.01171875 C1118.18453335 683.08165296 1114.54509547 677.61690451 1111 672 C1110.35675781 671.00226562 1109.71351562 670.00453125 1109.05078125 668.9765625 C1081.49359476 623.70004919 1072.30089784 565.85993817 1064.2734375 514.21875 C1064.14425934 513.41095093 1064.01508118 512.60315186 1063.88198853 511.77087402 C1063.1285303 506.78879186 1062.88286493 502.03896368 1063 497 C1062.34 497 1061.68 497 1061 497 C1060.82150513 498.31000977 1060.82150513 498.31000977 1060.6394043 499.64648438 C1060.01356371 502.92886171 1059.08533159 505.59323087 1057.76953125 508.65625 C1057.30353516 509.74599121 1056.83753906 510.83573242 1056.35742188 511.95849609 C1055.59268555 513.71154053 1055.59268555 513.71154053 1054.8125 515.5 C1054.41792603 516.41039032 1054.41792603 516.41039032 1054.01538086 517.33917236 C1044.31376578 539.71761297 1034.1885439 561.84797571 1022 583 C1021.51321777 583.8470752 1021.02643555 584.69415039 1020.52490234 585.56689453 C999.80374065 621.39026699 973.96847088 657.61607363 940 682 C939.4210498 682.4232959 938.84209961 682.8465918 938.24560547 683.28271484 C920.16106597 696.39859282 898.68554091 706.47934824 876 707 C875.23429687 707.03867187 874.46859375 707.07734375 873.6796875 707.1171875 C850.55566245 707.80403973 827.35092356 700.88171188 810.0625 685.25 C786.31432307 662.63183179 778.15870382 628.59331399 776.8737793 596.88525391 C775.77339966 551.63345118 786.04312348 507.94826085 795.50121689 463.98744392 C807.27957946 413.9878753 807.27957946 413.9878753 812.375 363.0625 C812.38926025 362.16732666 812.40352051 361.27215332 812.41821289 360.34985352 C812.37373958 354.5820491 811.4288146 350.25069824 809 345 C806.30069115 342.60061435 804.47059606 342.08643601 800.9375 341.4375 C780.9596763 344.29147481 763.69565687 366.25661495 752 381 C751.07693984 382.13396906 750.1523913 383.26672776 749.2265625 384.3984375 C712.41185787 429.57706123 683.8675591 482.03158211 660 535 C659.47293457 536.16321777 658.94586914 537.32643555 658.40283203 538.52490234 C639.30242268 580.8820736 623.8103936 625.00199896 612.24487305 670.00073242 C606.29038719 693.06867789 606.29038719 693.06867789 597 699 C581.11678415 707.22601813 560.28833257 709.55881777 542.9453125 705.0078125 C529.15880031 700.29041178 521.31576734 690.92276571 514.59375 678.375 C504.79993483 658.30962258 503.6445255 634.93609215 503 613 C502.66379639 613.44166504 502.32759277 613.88333008 501.98120117 614.33837891 C498.57725476 618.80725032 495.1643338 623.26913615 491.74414062 627.72558594 C490.66031658 629.13892647 489.57800151 630.55342715 488.49804688 631.96972656 C482.25317825 640.15129495 475.71763067 647.91590877 468.58886719 655.34375 C467.51421194 656.46398067 466.4446715 657.58913693 465.37988281 658.71875 C438.34123426 687.33851267 403.79913513 706.57953714 363.9765625 707.9609375 C338.11807083 708.43438865 315.32113555 699.35689283 296.375 681.8125 C279.58775437 663.98386196 269.57138091 640.61204291 264 617 C261.22199746 620.37765948 258.74617072 623.82720791 256.375 627.5 C231.48391855 665.06624469 197.29219405 695.93205305 152.3984375 706.09375 C122.04706423 712.15352585 90.97626552 708.06833754 65 691 C61.16567199 688.17059765 57.55000039 685.17692974 54 682 C53.08541016 681.20916016 53.08541016 681.20916016 52.15234375 680.40234375 C22.5302705 653.02118384 13.60120733 608.32066851 10 570 C8.09631885 572.45793456 6.42978463 574.87783298 4.9765625 577.625 C4.60225098 578.32117432 4.22793945 579.01734863 3.84228516 579.73461914 C3.239729 580.85598267 3.239729 580.85598267 2.625 582 C-20.57473777 624.39130269 -52.90671576 665.81416473 -90 697 C-91.32257813 698.15628906 -91.32257813 698.15628906 -92.671875 699.3359375 C-108.05038771 712.71237987 -124.51290273 724.54516387 -142 735 C-142.65323242 735.39348633 -143.30646484 735.78697266 -143.97949219 736.19238281 C-181.99611617 758.90795482 -226.39102812 774.97698485 -271.08984375 775.203125 C-272.02379471 775.21013931 -272.95774567 775.21715363 -273.91999817 775.22438049 C-276.92588165 775.24181245 -279.93156779 775.24823518 -282.9375 775.25 C-283.96677612 775.25067474 -284.99605225 775.25134949 -286.05651855 775.25204468 C-302.2361815 775.23520725 -318.00362431 774.62642497 -334 772 C-335.58071289 771.75056641 -335.58071289 771.75056641 -337.19335938 771.49609375 C-398.96117484 761.503697 -458.24569468 731.03989973 -497 681 C-498.17949219 679.52853516 -498.17949219 679.52853516 -499.3828125 678.02734375 C-540.91440193 625.8260366 -560.40427336 558.53147205 -567 493 C-567.08613556 492.16568451 -567.17227112 491.33136902 -567.26101685 490.47177124 C-568.98756659 473.25108214 -569.34535716 456.10709926 -569.31567383 438.8190918 C-569.31105879 435.91040513 -569.31792748 433.00213838 -569.33618164 430.09350586 C-569.50452195 402.95077602 -567.8252962 376.17272169 -563.25 349.375 C-563.12338989 348.61626587 -562.99677979 347.85753174 -562.86633301 347.07580566 C-548.50156939 261.31608887 -511.83830364 175.89115707 -454.52734375 109.9296875 C-452.03670312 107.04254613 -449.63817759 104.09713333 -447.25 101.125 C-444.26579084 97.45580332 -441.18601953 94.05159879 -437.77661133 90.77758789 C-436.02662199 89.02663662 -434.42212577 87.21151077 -432.81640625 85.328125 C-428.91537702 80.84060259 -424.77702283 76.62926213 -420.5625 72.4375 C-419.85029297 71.72142578 -419.13808594 71.00535156 -418.40429688 70.26757812 C-413.7662768 65.63798315 -408.96744444 61.27132897 -404 57 C-402.84349272 55.97832494 -401.68849776 54.95493497 -400.53515625 53.9296875 C-391.35559368 45.82914687 -381.83872889 38.28309105 -372 31 C-371.3930127 30.55027832 -370.78602539 30.10055664 -370.16064453 29.63720703 C-335.17969359 3.86741862 -296.38712721 -16.69671567 -255 -30 C-254.09910645 -30.2897168 -253.19821289 -30.57943359 -252.27001953 -30.87792969 C-171.97365392 -56.29887471 -67.52273947 -57.55293901 0 0 Z M1359.62890625 218.4609375 C1343.32206176 243.87928023 1343.17793672 279.58647607 1349.03515625 308.3125 C1353.43654738 328.41723684 1360.64110864 346.35869644 1373 363 C1389.1961001 346.8038999 1392.25280995 294.0061796 1395 272 C1395.1016748 271.2073877 1395.20334961 270.41477539 1395.30810547 269.59814453 C1396.16903021 262.11991594 1396.22000655 254.6458565 1396.25 247.125 C1396.270625 245.83980469 1396.29125 244.55460937 1396.3125 243.23046875 C1396.35672175 232.34086215 1395.55592348 220.54147871 1388 212 C1383.86430291 208.36058656 1379.64728095 207.32396564 1374.1953125 207.62890625 C1367.31859715 208.79134034 1363.55724195 213.06496855 1359.62890625 218.4609375 Z M212 328 C211.34386719 328.58394531 210.68773437 329.16789062 210.01171875 329.76953125 C195.81371087 343.15428808 185.28151422 361.06739906 176.05273438 378.07519531 C175.07056129 379.87098673 174.05977017 381.65104359 173.046875 383.4296875 C139.30461467 443.91886151 116.35537687 529.62571776 134.43359375 598.01953125 C137.91767736 610.20180982 144.22374959 622.80333886 155 630 C165.30131824 635.56358116 175.5878003 637.99827901 187.125 634.8125 C218.9321292 623.94297711 237.60040505 588.18764992 251.54296875 559.99902344 C273.28721612 515.24260006 287.44635999 466.29328453 294 417 C294.11714355 416.13358887 294.23428711 415.26717773 294.35498047 414.37451172 C298.35032191 383.55754674 300.42347065 343.50494432 281 317 C275.34786361 310.51181844 268.49421887 306.67803973 259.9296875 305.62109375 C240.44131459 304.89321476 225.78356725 315.55572673 212 328 Z M1669.41259766 339.85986328 C1620.59704604 399.76058037 1590.81876506 493.42149594 1597.51806641 570.48779297 C1599.68032087 590.99506952 1605.32759275 615.0132935 1622.02734375 628.65625 C1630.58505502 634.79253506 1639.52438804 637.083684 1650 636 C1663.54861107 633.49099795 1673.52377431 625.46967455 1683 616 C1683.82113281 615.20207031 1684.64226563 614.40414063 1685.48828125 613.58203125 C1740.02883965 557.43471335 1764.94114259 451.93385326 1764.1484375 375.66015625 C1763.7122327 354.69729765 1761.48502837 330.08374369 1746.5625 313.9375 C1739.44803663 307.48000284 1731.74762136 305.61977969 1722.3515625 305.72265625 C1700.55042697 307.52671292 1682.9646305 323.98176636 1669.41259766 339.85986328 Z " fill="#357BDB" transform="translate(569,64)"/>
</svg>
