<?xml version="1.0" encoding="UTF-8"?>
<svg version="1.1" xmlns="http://www.w3.org/2000/svg" width="2506" height="2506">
<path d="M0 0 C27.72 0 55.44 0 84 0 C87.13488453 7.52372288 90.15735999 14.95597487 92.87109375 22.62109375 C93.22554565 23.61362656 93.57999756 24.60615936 93.94519043 25.62876892 C94.71073047 27.77333268 95.47488075 29.91839296 96.23776245 32.06390381 C97.9010384 36.74094456 99.57175582 41.41531667 101.24208069 46.08984375 C102.1298802 48.57443073 103.01735656 51.0591332 103.90452576 53.54394531 C108.65917978 66.85928341 113.44932274 80.16178324 118.24724579 93.46158218 C118.93847444 95.37770121 119.6295539 97.293874 120.32061768 99.21005249 C127.9164378 120.26957872 135.55266163 141.31426579 143.21655273 162.34912109 C147.42015185 173.88870843 151.60234618 185.43561389 155.75746155 196.99275208 C158.92382989 205.79702587 162.11648565 214.59153094 165.31930542 223.38259888 C172.14164839 242.11098957 178.93673919 260.84924244 185.72337341 279.59059525 C186.43651471 281.55977933 187.14981504 283.52890574 187.86315918 285.49801636 C189.19963114 289.18730094 190.53541754 292.8768335 191.87109375 296.56640625 C192.27450485 297.6799649 192.67791595 298.79352356 193.09355164 299.94082642 C193.46285294 300.9613913 193.83215424 301.98195618 194.21264648 303.03344727 C194.53522934 303.92443619 194.85781219 304.81542511 195.19017029 305.7334137 C195.81473806 307.48148091 196.4129886 309.23896579 197 311 C197.495 157.055 197.495 157.055 198 0 C227.04 0 256.08 0 286 0 C287.82218689 1.82218689 287.12378675 4.3522234 287.13100848 6.7777603 C287.12838146 7.61741464 287.12575445 8.45706898 287.12304783 9.3221674 C287.12420167 10.20971743 287.12535552 11.09726745 287.12654433 12.01171294 C287.12921885 15.02492178 287.12468201 18.03807859 287.12025452 21.05128479 C287.12069005 23.21766816 287.12156462 25.38405149 287.12284368 27.55043453 C287.12509219 33.53400809 287.12106252 39.51756393 287.11606562 45.50113523 C287.11176638 51.94221395 287.11320717 58.38329159 287.1139679 64.82437134 C287.11466667 75.99411307 287.11137795 87.16384934 287.10573006 98.33358955 C287.09981961 110.05253693 287.09596544 121.77148198 287.09487724 133.49043083 C287.0948085 134.21819415 287.09473976 134.94595747 287.09466894 135.69577423 C287.09433062 139.39148884 287.09402923 143.08720346 287.09374207 146.78291809 C287.09163984 172.98182653 287.08489741 199.18073194 287.07543945 225.37963867 C287.0662599 250.83666976 287.0591739 276.29370001 287.05493164 301.75073242 C287.05480011 302.53498025 287.05466859 303.31922808 287.05453308 304.12724099 C287.05321459 312.00274632 287.05193877 319.87825166 287.05069422 327.75375701 C287.04815778 343.79807255 287.04533653 359.84238803 287.04234314 375.88670349 C287.04220585 376.62444789 287.04206856 377.36219228 287.04192711 378.12229257 C287.03272139 427.414863 287.01685486 476.70743165 287 526 C284.92952737 526.32198893 282.85890342 526.64300498 280.78821659 526.96361351 C279.6351543 527.14248427 278.482092 527.32135503 277.29408842 527.50564611 C273.2545295 528.11187503 269.21216684 528.60959224 265.15209961 529.05322266 C264.36658722 529.14129684 263.58107483 529.22937103 262.77175903 529.32011414 C260.23224595 529.60412768 257.69232135 529.88423634 255.15234375 530.1640625 C253.36444675 530.36281 251.57656969 530.56173702 249.78871155 530.76083374 C246.07002585 531.17433637 242.35113607 531.5859353 238.63208008 531.99609375 C233.8670799 532.52172656 229.10258824 533.05181845 224.33823299 533.58326149 C220.65902098 533.99323594 216.97957454 534.40107314 213.30005074 534.80823898 C211.54211171 535.00299046 209.78424119 535.19836143 208.02644157 535.39436722 C205.57897568 535.66691298 203.13121391 535.93662576 200.68334961 536.20556641 C199.96074448 536.28658096 199.23813934 536.36759552 198.49363708 536.45106506 C195.29502273 536.79969937 192.22438685 537 189 537 C181.48374418 515.57532755 173.99836363 494.14021633 166.5625 472.6875 C161.32513339 457.57890992 156.0811445 442.47271436 150.8125 427.375 C150.36931427 426.10490082 150.36931427 426.10490082 149.91717529 424.80914307 C146.55952511 415.1876413 143.19853869 405.5673066 139.83587074 395.94755745 C137.28589812 388.65271849 134.73652158 381.35767133 132.1875 374.0625 C131.95286797 373.39103943 131.71823593 372.71957886 131.47649384 372.027771 C124.08643296 350.87854029 116.72905854 329.71827763 109.42456055 308.53930664 C103.02276148 289.99960233 96.50214582 271.50610733 90 253 C89.67 350.68 89.34 448.36 89 549 C83.0286599 550.19426802 77.25910201 551.31790258 71.25878906 552.14501953 C70.5549559 552.24284729 69.85112274 552.34067505 69.1259613 552.44146729 C66.83960008 552.75836577 64.55265826 553.07080408 62.265625 553.3828125 C60.65759218 553.60400434 59.04958066 553.82535109 57.44158936 554.04684448 C54.09008212 554.50773936 50.73826956 554.96632979 47.38623047 555.42333984 C43.09970702 556.0080096 38.81410607 556.5991625 34.52872086 557.19211006 C31.21592762 557.64963808 27.90262598 558.10339449 24.58916473 558.55605698 C23.00861391 558.77250505 21.42823245 558.99019373 19.84803009 559.2091713 C17.64040801 559.51458849 15.43213913 559.81482282 13.22363281 560.11376953 C11.97028137 560.28538605 10.71692993 560.45700256 9.42559814 560.63381958 C6 561 6 561 0 561 C0 375.87 0 190.74 0 0 Z " fill="#E50813" transform="translate(244,968)"/>
<path d="M0 0 C32.34 0 64.68 0 98 0 C110.49991838 30.68161785 110.49991838 30.68161785 115.75280762 44.64193726 C117.42963333 49.09651881 119.11920514 53.54626447 120.80859375 57.99609375 C121.32650986 59.36079552 121.32650986 59.36079552 121.85488892 60.75306702 C126.24209112 72.29448945 130.74474688 83.79072154 135.24707031 95.28759766 C135.90041385 96.95604559 136.5537344 98.62450253 137.20703125 100.29296875 C137.5249765 101.10481628 137.84292175 101.91666382 138.17050171 102.75311279 C140.3424381 108.30435104 142.49542157 113.86265791 144.63671875 119.42578125 C144.920383 120.16209274 145.20404724 120.89840424 145.49630737 121.6570282 C146.82082597 125.0958634 148.14261724 128.53570493 149.45996094 131.97729492 C149.91532227 133.1604126 150.37068359 134.34353027 150.83984375 135.5625 C151.43333618 137.11130859 151.43333618 137.11130859 152.03881836 138.69140625 C152.79588616 140.92288609 152.79588616 140.92288609 154 142 C163.28112257 120.77237806 172.51487766 99.52474443 181.6875 78.25 C182.14113922 77.19809479 182.59477844 76.14618958 183.06216431 75.06240845 C187.94296952 63.74418545 192.81877349 52.42382646 197.68650818 41.09997559 C199.73373682 36.33837032 201.78272856 31.57752482 203.8319397 26.81677246 C204.81573226 24.52980708 205.79862821 22.24245577 206.78060913 19.95471191 C208.13937703 16.78920255 209.50100983 13.62494036 210.86328125 10.4609375 C211.26946686 9.51251984 211.67565247 8.56410217 212.09414673 7.58694458 C212.649496 6.29939774 212.649496 6.29939774 213.21606445 4.98583984 C213.69944023 3.86089615 213.69944023 3.86089615 214.19258118 2.71322632 C215 1 215 1 216 0 C219.01350238 -0.09529612 222.00404106 -0.12551904 225.01782227 -0.11352539 C225.96406464 -0.11367142 226.91030701 -0.11381744 227.88522339 -0.1139679 C231.02897392 -0.11326836 234.17266601 -0.10547409 237.31640625 -0.09765625 C239.48974068 -0.09579221 241.66307552 -0.09436824 243.83641052 -0.09336853 C249.56901195 -0.08954221 255.30158823 -0.07971097 261.03417969 -0.06866455 C266.87890279 -0.05845287 272.72362993 -0.05387143 278.56835938 -0.04882812 C290.045584 -0.0380888 301.52278991 -0.02101102 313 0 C313.18616755 7.45102668 313.18616755 7.45102668 311.69677734 10.84082031 C311.40652176 11.51861542 311.11626617 12.19641052 310.81721497 12.89474487 C310.4933934 13.61526031 310.16957184 14.33577576 309.8359375 15.078125 C309.4966069 15.86091827 309.15727631 16.64371155 308.80766296 17.45022583 C307.67515528 20.05543638 306.52498748 22.65246368 305.375 25.25 C304.56307091 27.10962139 303.75247338 28.96982463 302.94311523 30.83056641 C301.20951555 34.81243309 299.46945603 38.79138991 297.72509766 42.76855469 C294.98423071 49.02555781 292.27510046 55.2959621 289.57421875 61.5703125 C289.12250305 62.61964966 288.67078735 63.66898682 288.2053833 64.75012207 C287.28717217 66.88346996 286.36904095 69.01685225 285.45098877 71.15026855 C283.11826354 76.56796624 280.77982872 81.98319702 278.44140625 87.3984375 C277.98175476 88.46300171 277.52210327 89.52756592 277.04852295 90.62438965 C275.69909 93.74962536 274.34955371 96.87481643 273 100 C272.17561342 101.9091775 271.35123175 103.81835712 270.52685547 105.72753906 C267.4105452 112.94451501 264.29407452 120.16142165 261.17724609 127.37817383 C255.63950068 140.20074139 250.10540024 153.02487858 244.57330322 165.84988403 C243.1933354 169.04897218 241.81323085 172.24800131 240.43310547 175.44702148 C236.12072103 185.44332036 231.80974873 195.4402228 227.50306702 205.4389801 C225.52076684 210.04099712 223.53771207 214.6426888 221.55459595 219.24435425 C220.61832647 221.41747078 219.68241994 223.59074373 218.74691772 225.76419067 C217.86410025 227.81519762 216.98073654 229.86596956 216.0967865 231.91648865 C215.25707823 233.8652683 214.41902861 235.81476363 213.58277893 237.76502991 C211.63586325 242.28949559 209.649993 246.78633867 207.55761719 251.24560547 C206.98658768 252.47657204 206.98658768 252.47657204 206.40402222 253.73240662 C205.69626382 255.25013901 204.97609233 256.76217587 204.24075317 258.26673889 C201.38513421 264.41663199 202.23791486 268.03524379 204.46435547 274.1262207 C205.09267753 275.72842244 205.72737957 277.32813147 206.3671875 278.92578125 C206.71330582 279.80419678 207.05942413 280.6826123 207.41603088 281.58764648 C208.1681803 283.49471303 208.92298855 285.40073259 209.68014526 287.30581665 C211.31809099 291.42747595 212.94297198 295.55424757 214.56877136 299.68070984 C215.42310221 301.84870474 216.27810357 304.01643552 217.13374329 306.18391418 C221.61583066 317.54174623 226.03014213 328.92550828 230.4375 340.3125 C231.23153507 342.36241435 232.02564352 344.41230027 232.81982422 346.4621582 C234.41649642 350.58353576 236.01281776 354.70504895 237.60888672 358.82666016 C241.17410897 368.03243758 244.74398193 377.23641163 248.31350708 386.44052124 C250.29252881 391.54360686 252.27124914 396.64680934 254.25 401.75 C255.04166522 403.79166723 255.83333189 405.83333389 256.625 407.875 C258.20833333 411.95833333 259.79166667 416.04166667 261.375 420.125 C261.96278984 421.64087708 261.96278984 421.64087708 262.56245422 423.18737793 C263.35427709 425.2294501 264.14609634 427.27152367 264.93791199 429.31359863 C266.91465927 434.4115726 268.89146887 439.50952238 270.8684082 444.60742188 C274.45977037 453.86858894 278.05072454 463.1299129 281.63920593 472.39219666 C282.44945478 474.48336833 283.25984886 476.57448374 284.07038879 478.6655426 C286.06395166 483.80861493 288.05590555 488.95229647 290.04418945 494.09741211 C293.51544971 503.07224255 297.00275752 512.03916274 300.57585144 520.97402954 C302.0941701 524.7708029 303.60363136 528.57107467 305.1131897 532.37133789 C305.82052331 534.14321832 306.53278309 535.91314143 307.25033569 537.6809082 C308.23502595 540.10683038 309.2030352 542.53882206 310.16796875 544.97265625 C310.4575647 545.67246109 310.74716064 546.37226593 311.04553223 547.09327698 C312.93525306 551.92405717 313.26236603 555.81456169 313 561 C301.74241502 560.34740632 290.6427007 558.82392008 279.48046875 557.27734375 C277.52611281 557.00939642 275.57171031 556.74178847 273.61726379 556.47450256 C268.51567591 555.77590511 263.41472656 555.07275069 258.31390381 554.36859131 C253.09181415 553.64853158 247.86912355 552.93285806 242.64648438 552.21679688 C232.43040232 550.81544978 222.21499057 549.40927976 212 548 C205.94765201 533.27916932 199.96432422 518.54663341 194.36282349 503.64727783 C192.68598265 499.18974922 190.99563842 494.73734788 189.3046875 490.28515625 C188.95388626 489.36144226 188.60308502 488.43772827 188.24165344 487.48602295 C184.25288529 477.00460001 180.1601727 466.56421664 176.0625 456.125 C170.19312255 441.16199574 164.33200076 426.19595261 158.5229187 411.20941162 C157.76155759 409.24657146 156.99897644 407.28420407 156.23513794 405.32232666 C155.18216954 402.61716743 154.13346722 399.91039404 153.0859375 397.203125 C152.77127029 396.39714874 152.45660309 395.59117249 152.13240051 394.76077271 C150 389.2286055 150 389.2286055 150 387 C149.34 387 148.68 387 148 387 C147.81249428 388.09004082 147.81249428 388.09004082 147.62120056 389.20210266 C147.01608126 391.92756974 146.17894489 394.21375034 145.06079102 396.76635742 C144.65778275 397.69316315 144.25477448 398.61996887 143.83955383 399.57485962 C143.39879013 400.57496063 142.95802643 401.57506165 142.50390625 402.60546875 C142.04384689 403.66035492 141.58378754 404.71524109 141.10978699 405.80209351 C140.11703029 408.07709308 139.12206038 410.35112786 138.12512207 412.6242981 C135.74432144 418.05316889 133.37660149 423.48773392 131.00766373 428.92178917 C130.20460032 430.76338716 129.40092798 432.60471842 128.59713745 434.44599915 C123.93479601 445.13170843 119.33112504 455.84177656 114.75 466.5625 C113.31950449 469.90646152 111.88833484 473.25013429 110.45703125 476.59375 C109.92541382 477.83576675 109.92541382 477.83576675 109.38305664 479.10287476 C105.17624145 488.9284604 100.95762991 498.74895541 96.72839355 508.56491089 C95.87262087 510.55210408 95.01771171 512.53966938 94.16369629 514.52761841 C92.98510296 517.27070046 91.80350572 520.01246851 90.62109375 522.75390625 C90.26786545 523.57769775 89.91463715 524.40148926 89.55070496 525.25024414 C87.11421741 530.88578259 87.11421741 530.88578259 86 532 C76.09022042 532.47891597 66.26512713 531.10298861 56.4296875 530.03125 C54.53830792 529.8290085 52.64687839 529.62723369 50.75540161 529.42590332 C45.80662157 528.89789571 40.85854053 528.36359963 35.9105835 527.82794189 C30.84965405 527.28119667 25.78808198 526.74046944 20.7265625 526.19921875 C10.81707421 525.13866472 0.90831472 524.07145885 -9 523 C-8.21761602 518.74225864 -6.90743601 515.13938853 -5.18359375 511.15625 C-4.89599686 510.48803726 -4.60839996 509.81982452 -4.31208801 509.13136292 C-3.35849076 506.91889118 -2.39801164 504.70947771 -1.4375 502.5 C-0.75770767 500.92653677 -0.07835403 499.35288394 0.60058594 497.77905273 C2.37847126 493.66083259 4.16202229 489.5450908 5.94683838 485.42987061 C7.59694535 481.62271854 9.24180414 477.81330388 10.88671875 474.00390625 C13.5181376 467.91159183 16.15257015 461.82058919 18.7890625 455.73046875 C23.24025968 445.44785312 27.68339974 435.16176409 32.125 424.875 C32.51799286 423.96486145 32.91098572 423.0547229 33.31588745 422.11700439 C40.74150078 404.91939784 48.16222434 387.7196819 55.58081055 370.51904297 C56.50960214 368.36555958 57.43839446 366.21207651 58.3671875 364.05859375 C58.82891861 362.98802734 59.29064972 361.91746094 59.76637268 360.81445312 C62.13559103 355.32149682 64.50532359 349.8287631 66.87597656 344.33642578 C67.35180176 343.23400543 67.82762695 342.13158508 68.31787109 340.99575806 C69.27565965 338.77705581 70.23366647 336.55844777 71.19189453 334.3399353 C73.52959084 328.92650971 75.8630079 323.51132574 78.18652344 318.09179688 C81.94419285 309.33526116 85.70563555 300.58575682 89.6603241 291.91598511 C91.13740333 288.67543015 92.5938478 285.42580454 94.04885864 282.17529297 C94.71333634 280.70834067 95.38882959 279.24631738 96.0763855 277.79003906 C97.00733785 275.81806844 97.89945466 273.83245474 98.78515625 271.83984375 C99.28926025 270.75050537 99.79336426 269.66116699 100.31274414 268.53881836 C101.30479509 263.43054892 99.80037954 259.78589829 98 255 C97.70831436 254.19718094 97.41662872 253.39436188 97.11610413 252.56721497 C96.17883837 250.04201869 95.20393629 247.53421591 94.21875 245.02734375 C93.85322021 244.08786392 93.48769043 243.14838409 93.11108398 242.18043518 C91.91092253 239.09806645 90.70543184 236.01781098 89.5 232.9375 C88.64737751 230.75015936 87.7951716 228.5626563 86.94335938 226.375 C85.174788 221.83384259 83.40443283 217.29338672 81.6328125 212.75341797 C77.96449421 203.34897891 74.31801385 193.93608969 70.67138672 184.52322388 C68.6986289 179.43174687 66.72422555 174.34090803 64.75 169.25 C63.95832557 167.20833634 63.1666589 165.16666968 62.375 163.125 C61.7871875 161.6090625 61.7871875 161.6090625 61.1875 160.0625 C38.625 101.875 38.625 101.875 37.43774414 98.81309509 C36.64529471 96.76943275 35.85281419 94.72578246 35.06030273 92.68214417 C33.09285861 87.60860924 31.125938 82.53487264 29.16015625 77.46069336 C25.45859667 67.90769551 21.75160223 58.35690271 18.02722168 48.81277466 C16.27181022 44.31344316 14.51922044 39.81301495 12.7668457 35.3125 C11.93215507 33.17116223 11.09608818 31.03036034 10.25854492 28.89013672 C9.09593596 25.91899877 7.93812146 22.94603201 6.78125 19.97265625 C6.44150146 19.10814346 6.10175293 18.24363068 5.75170898 17.35292053 C3.521274 11.60193903 1.78452337 5.94841123 0 0 Z " fill="#E40813" transform="translate(2016,968)"/>
<path d="M0 0 C80.85 0 161.7 0 245 0 C246.7974182 1.7974182 246.12630946 4.24137962 246.13552856 6.63444519 C246.13249222 7.84696709 246.13249222 7.84696709 246.12939453 9.08398438 C246.13202301 10.35463493 246.13202301 10.35463493 246.13470459 11.6509552 C246.13912409 14.46524066 246.13618477 17.27946384 246.1328125 20.09375 C246.13348551 22.04048678 246.13445551 23.98722347 246.13571167 25.93395996 C246.13718878 30.01962075 246.13503368 34.10525971 246.13037109 38.19091797 C246.1246738 43.44046516 246.12795274 48.68996122 246.13394356 53.93950653 C246.13754883 57.96108387 246.13641074 61.98264899 246.13381577 66.00422668 C246.1331464 67.94041449 246.13397525 69.87660339 246.13629532 71.81278992 C246.13882129 74.51389524 246.13498205 77.21491659 246.12939453 79.91601562 C246.13141876 80.72436356 246.13344299 81.53271149 246.13552856 82.36555481 C246.11426248 87.88573752 246.11426248 87.88573752 245 89 C243.00038545 89.09672695 240.99729807 89.1218703 238.99534607 89.12025452 C237.03699326 89.12231651 237.03699326 89.12231651 235.03907776 89.12442017 C233.57870461 89.12088055 232.11833169 89.11724573 230.65795898 89.11352539 C229.13073732 89.11324353 227.60351553 89.11340123 226.07629395 89.1139679 C221.91738312 89.11425591 217.75850089 89.10835855 213.59959674 89.10139394 C209.25805476 89.09516106 204.91651219 89.09455665 200.57496643 89.09336853 C192.34786418 89.09025502 184.12077514 89.08204137 175.89367872 89.07201904 C164.78047532 89.05877345 153.66726833 89.05335816 142.55405903 89.04751682 C125.03602944 89.03810149 107.51802776 89.01818271 90 89 C90 127.61 90 166.22 90 206 C95.94 205.67 101.88 205.34 108 205 C111.74873353 204.92437434 115.4764164 204.87099764 119.22314453 204.88647461 C120.20113007 204.88632858 121.1791156 204.88618256 122.18673706 204.8860321 C125.3354536 204.88671422 128.48410665 204.89442431 131.6328125 204.90234375 C133.84911059 204.90421401 136.06540911 204.90563503 138.28170776 204.90663147 C144.05187161 204.91040881 149.82200938 204.92019693 155.59216309 204.93133545 C162.54921429 204.94347501 169.50627432 204.94797462 176.46333313 204.95378876 C186.97557343 204.96341231 197.48775677 204.98260202 208 205 C208 233.71 208 262.42 208 292 C198.368125 292.165 188.73625 292.33 178.8125 292.5 C175.90155518 292.55220703 172.99061035 292.60441406 169.99145508 292.65820312 C143.316921 293.0902488 116.69261937 293 90 293 C90 335.9 90 378.8 90 423 C96.27 422.34 102.54 421.68 109 421 C112.62624604 420.69627678 116.24361827 420.40575389 119.87304688 420.16210938 C120.80471176 420.09675491 121.73637665 420.03140045 122.6962738 419.96406555 C125.70354667 419.75398016 128.71112426 419.548716 131.71875 419.34375 C133.87220879 419.19469488 136.02565081 419.04539728 138.17907715 418.89587402 C142.67343997 418.58453688 147.16795251 418.27549547 151.66259766 417.96826172 C157.3110067 417.58206897 162.95906927 417.19106171 168.60704041 416.79852295 C188.5179997 415.41569245 208.43044834 414.04194148 228.35429382 412.85624695 C229.87531923 412.76539537 231.39624781 412.67290625 232.91706848 412.57868958 C234.96327062 412.45271616 237.00994617 412.33450117 239.05664062 412.21679688 C240.18992798 412.15004761 241.32321533 412.08329834 242.49084473 412.01452637 C243.31886597 412.00973267 244.14688721 412.00493896 245 412 C246.79988399 413.79988399 246.11993004 416.24999876 246.12442017 418.64555359 C246.12082489 419.45547256 246.11722961 420.26539154 246.11352539 421.09985352 C246.11367142 421.94856018 246.11381744 422.79726685 246.1139679 423.67169189 C246.11326848 426.49078891 246.10547478 429.30982071 246.09765625 432.12890625 C246.09579217 434.07803817 246.09436822 436.02717055 246.09336853 437.9763031 C246.08954255 443.11706832 246.07971159 448.25780547 246.06866455 453.39855957 C246.05845215 458.64005148 246.05387128 463.8815479 246.04882812 469.12304688 C246.03808939 479.41537694 246.02101201 489.70768614 246 500 C225.42032854 501.48495117 204.83968676 502.95218055 184.25382996 504.34905815 C136.40609195 507.59841307 88.59703754 511.13494656 40.81507301 515.24791908 C36.88604948 515.58596506 32.95686049 515.92206958 29.02768326 516.25832367 C26.34801834 516.48900097 23.66873897 516.72380419 20.98947144 516.95904541 C19.37092351 517.09841605 17.75236343 517.23764576 16.13378906 517.37670898 C15.42175009 517.44053363 14.70971111 517.50435827 13.9760952 517.570117 C9.26598058 517.96971229 4.76458847 518 0 518 C0 347.06 0 176.12 0 0 Z " fill="#E50813" transform="translate(614,968)"/>
<path d="M0 0 C81.51 0 163.02 0 247 0 C247 29.37 247 58.74 247 89 C195.19 89 143.38 89 90 89 C90 125.96 90 162.92 90 201 C129.27 201 168.54 201 209 201 C209 229.71 209 258.42 209 288 C169.73 288 130.46 288 90 288 C90.01160156 302.35371094 90.02320313 316.70742187 90.03515625 331.49609375 C90.04026255 340.56054705 90.04511754 349.62499932 90.04882812 358.68945312 C90.05477182 373.09383498 90.06177544 387.49821101 90.07543945 401.90258789 C90.08538423 412.39117644 90.09185293 422.87976029 90.09408849 433.36835343 C90.09539595 438.92566864 90.09848402 444.48297038 90.10573006 450.0402813 C90.11248702 455.2645276 90.11461763 460.4887548 90.11310768 465.71300507 C90.11338416 467.63636694 90.11539119 469.55972942 90.11920547 471.48308754 C90.12413767 474.09706095 90.12300006 476.71096101 90.12025452 479.32493591 C90.12316736 480.09632178 90.1260802 480.86770765 90.12908131 481.66246885 C90.11412121 486.88587879 90.11412121 486.88587879 89 488 C59.63 488 30.26 488 0 488 C0 326.96 0 165.92 0 0 Z " fill="#E50813" transform="translate(1242,968)"/>
<path d="M0 0 C90.09 0 180.18 0 273 0 C273 29.37 273 58.74 273 89 C242.64 89 212.28 89 181 89 C181 221.33 181 353.66 181 490 C168.6229344 491.12518778 168.6229344 491.12518778 163.09838867 491.29711914 C161.86307907 491.33708511 160.62776947 491.37705109 159.35502625 491.41822815 C157.40618279 491.47610756 157.40618279 491.47610756 155.41796875 491.53515625 C154.03232638 491.5783437 152.64669112 491.62175971 151.26106262 491.66539001 C148.37258716 491.75563539 145.48405551 491.8436503 142.59545898 491.92993164 C138.93471555 492.03938167 135.27414217 492.15364006 131.61359692 492.26950932 C128.75565123 492.3595594 125.89764072 492.44739681 123.03960609 492.53457451 C121.04697751 492.59561875 119.05439444 492.65814302 117.06181335 492.72071838 C115.81704727 492.7575322 114.57228119 492.79434601 113.28979492 492.83227539 C112.21710861 492.86478897 111.1444223 492.89730255 110.03923035 492.93080139 C104.02699153 493.03380086 98.01312102 493 92 493 C92 359.68 92 226.36 92 89 C61.64 89 31.28 89 0 89 C0 59.63 0 30.26 0 0 Z " fill="#E40814" transform="translate(914,968)"/>
<path d="M0 0 C29.7 0 59.4 0 90 0 C91 1 91 1 91.1241985 3.73389441 C91.12381878 4.96988408 91.12343906 6.20587376 91.12304783 7.47931767 C91.12420167 8.1676396 91.12535552 8.85596153 91.12654433 9.56514171 C91.12921763 11.90063417 91.12468302 14.23605941 91.12025452 16.57154846 C91.12069007 18.25120543 91.12156469 19.93086233 91.12284368 21.61051887 C91.12509171 26.24870866 91.12106319 30.88687558 91.11606562 35.52506244 C91.11176569 40.51827488 91.11320722 45.51148593 91.1139679 50.50469971 C91.11449342 59.16329316 91.11134364 67.8218791 91.10573006 76.48047066 C91.09761892 88.99949467 91.09500023 101.51851503 91.09374207 114.03754138 C91.09155094 134.34656285 91.0848892 154.65558032 91.07543945 174.96459961 C91.06626691 194.69832336 91.05918531 214.43204603 91.05493164 234.16577148 C91.05466892 235.38121596 91.05440619 236.59666044 91.05413551 237.84893657 C91.05283052 243.94618292 91.0515668 250.04342929 91.05032361 256.14067566 C91.03994909 306.76045321 91.02232913 357.38022641 91 408 C92.91129369 408.08102919 92.91129369 408.08102919 94.86119938 408.16369534 C99.70823578 408.3695699 104.55518947 408.57734232 109.40212345 408.78561306 C111.47751752 408.87454328 113.55293209 408.96299679 115.62836933 409.05091381 C136.81578105 409.94906625 157.9821728 411.1343924 179.15057373 412.39685059 C182.93771313 412.6219507 186.72503509 412.8438898 190.51236629 413.06573582 C195.12158511 413.33578063 199.73072676 413.60712955 204.33984375 413.87890625 C205.18245192 413.92857607 206.02506008 413.97824589 206.89320183 414.02942085 C211.53988941 414.30398338 216.18626927 414.58303101 220.83231735 414.86821365 C222.29117444 414.95690627 223.75013451 415.04391938 225.20918655 415.12934494 C227.29928591 415.25172704 229.38902703 415.37909816 231.47875977 415.50756836 C232.66776382 415.57866318 233.85676788 415.649758 235.08180237 415.7230072 C238 416 238 416 241 417 C241 445.71 241 474.42 241 504 C233.44668081 504 226.06427471 503.99912953 218.55737305 503.51269531 C217.70018268 503.46052258 216.84299231 503.40834986 215.95982647 503.35459614 C214.11126908 503.24165112 212.26281834 503.12694878 210.41447067 503.01062202 C207.41843373 502.82226014 204.42211982 502.63901102 201.4256897 502.45701599 C197.09934565 502.19402536 192.77310225 501.92946619 188.44692993 501.66366577 C151.41413248 499.39279915 114.37844283 497.33459866 77.3125 495.6875 C76.40158474 495.64683914 75.49066948 495.60617828 74.55215073 495.56428528 C56.22562837 494.7466674 37.89881733 493.93437811 19.56282043 493.35734558 C18.58455795 493.32425797 17.60629547 493.29117035 16.59838867 493.25708008 C15.77505539 493.23116287 14.95172211 493.20524567 14.10343933 493.17854309 C9.39369511 492.90758813 4.69815797 492.42710527 0 492 C0 329.64 0 167.28 0 0 Z " fill="#E30813" transform="translate(1543,968)"/>
<path d="M0 0 C29.7 0 59.4 0 90 0 C90 170.61 90 341.22 90 517 C35.35373264 512.79644097 35.35373264 512.79644097 26.75048828 512.11962891 C24.59893056 511.95122859 22.44722832 511.7846679 20.29541016 511.61962891 C17.08461145 511.37307789 13.87431064 511.12079313 10.6640625 510.8671875 C9.69787994 510.79426483 8.73169739 510.72134216 7.73623657 510.64620972 C6.86115448 510.57588531 5.98607239 510.50556091 5.08447266 510.43310547 C4.31608063 510.37331512 3.5476886 510.31352478 2.75601196 510.25192261 C1 510 1 510 0 509 C-0.09894772 506.30087648 -0.13176043 503.62732477 -0.12304783 500.92771053 C-0.12420167 500.06717448 -0.12535552 499.20663843 -0.12654433 498.32002553 C-0.12921871 495.39871058 -0.12468212 492.47744931 -0.12025452 489.55613708 C-0.12069005 487.45575051 -0.12156463 485.35536399 -0.12284368 483.25497776 C-0.12509214 477.45382918 -0.12106259 471.65269886 -0.11606562 465.85155261 C-0.11176631 459.60679474 -0.11320717 453.36203798 -0.1139679 447.11727905 C-0.11449346 436.28803136 -0.11137799 425.45879106 -0.10573006 414.62954521 C-0.09981957 403.26785695 -0.09596543 391.90617107 -0.09487724 380.54448128 C-0.0948085 379.83889951 -0.09473976 379.13331773 -0.09466894 378.4063547 C-0.09433062 374.8232808 -0.09402923 371.2402069 -0.09374207 367.65713299 C-0.09163985 342.25685331 -0.08489745 316.85657675 -0.07543945 291.45629883 C-0.06625988 266.77530941 -0.05917389 242.09432086 -0.05493164 217.41333008 C-0.05480011 216.65298715 -0.05466859 215.89264421 -0.05453308 215.10926058 C-0.05321459 207.47380965 -0.05193877 199.83835871 -0.05069422 192.20290776 C-0.04815778 176.64764667 -0.04533653 161.09238564 -0.04234314 145.53712463 C-0.04220585 144.82186806 -0.04206856 144.10661149 -0.04192711 143.36968048 C-0.03272142 95.5797856 -0.01664783 47.7898928 0 0 Z " fill="#E50813" transform="translate(1854,968)"/>
<path d="" fill="#EB070F" transform="translate(0,0)"/>
<path d="" fill="#EB031E" transform="translate(0,0)"/>
</svg>
