<?xml version="1.0" encoding="UTF-8"?>
<svg version="1.1" xmlns="http://www.w3.org/2000/svg" width="1200" height="600">
<path d="M0 0 C5.8988048 5.67759962 9.55836954 12.96724514 10.22143555 21.23074341 C10.33226224 27.13134145 9.29663502 32.16853805 7.625 37.8046875 C7.35754471 38.74194672 7.09008942 39.67920593 6.81452942 40.64486694 C5.90857505 43.80830884 4.98553021 46.96650187 4.0625 50.125 C3.40353066 52.41214403 2.74560641 54.69958939 2.08862305 56.98730469 C0.60582257 62.14110725 -0.88487374 67.29254029 -2.38134766 72.44238281 C-4.96121514 81.32166044 -7.52217733 90.20635463 -10.08245468 99.09129715 C-14.39309312 114.04799425 -18.71148181 129.00245187 -23.04296875 143.953125 C-23.28245113 144.77977283 -23.52193352 145.60642067 -23.76867294 146.45811844 C-26.57857543 156.15396094 -29.40145016 165.84591885 -32.24072266 175.53320312 C-32.51369454 176.46470058 -32.78666643 177.39619804 -33.06791019 178.3559227 C-34.37955413 182.83067415 -35.69266096 187.30498893 -37.00810242 191.77862549 C-43.59932878 208.7409818 -43.59932878 208.7409818 -42.25 225.4375 C-39.23136317 229.10881506 -37.30729082 230.94385478 -32.48828125 231.56640625 C-21.69283458 232.03315499 -14.75026174 227.81377335 -6.70703125 220.91796875 C6.52987742 208.16647563 12.81977737 192.09325087 18.375 174.9375 C18.84473615 173.50673098 19.31454593 172.07598614 19.78442383 170.64526367 C25.79865101 152.21930568 31.415596 133.6342697 36.25390625 114.86328125 C36.42967697 114.18552139 36.60544769 113.50776154 36.7865448 112.8094635 C37.61096454 109.62436606 38.41930229 106.43771293 39.19995117 103.24145508 C42.05769076 92.00673294 45.82653357 80.70154222 56.0625 74.25 C65.52353258 69.60497497 75.37591852 67.31320512 85.75 70.375 C94.04043681 73.54313121 101.41141616 79.82433462 105.3203125 87.82421875 C109.33132534 97.87979989 108.26733452 105.89536342 105.33984375 116.1171875 C105.03473373 117.21626434 104.72962372 118.31534119 104.41526794 119.44772339 C103.31423888 123.38669363 102.1912329 127.31890189 101.0625 131.25 C100.7317535 132.40412132 100.7317535 132.40412132 100.39432526 133.58155823 C97.58199942 143.39297838 94.75059108 153.19889456 91.91601562 163.00390625 C91.5123902 164.40034048 91.5123902 164.40034048 91.10061073 165.8249855 C89.71576908 170.61339118 88.32698978 175.40060908 86.93188477 180.18603516 C85.55950143 184.8947659 84.19750958 189.60639471 82.84229851 194.32009506 C82.32982516 196.09532033 81.81354469 197.8694515 81.29324532 199.64239883 C80.57049277 202.10669246 79.8610885 204.57447629 79.15454102 207.04345703 C78.94112061 207.75930969 78.7277002 208.47516235 78.5078125 209.21270752 C76.91504745 214.86069965 75.9946397 220.42331097 78.125 226.0625 C81.69875825 230.09738835 85.71370623 231.07596209 90.9375 231.75 C99.20187856 231.38304883 106.65140402 225.05249532 112.0625 219.25 C125.20336164 203.5303261 133.3060372 185.89886312 140.9296875 167.03955078 C155.59028805 130.93782192 176.87671591 95.92119312 213.0625 78.25 C217.66418746 76.33303774 222.2776066 74.64807757 227.0625 73.25 C227.69269043 73.06453613 228.32288086 72.87907227 228.97216797 72.68798828 C252.58169249 66.54018875 278.32052107 71.23961014 299.0625 83.25 C307.01902174 88.01086957 307.01902174 88.01086957 310.0625 91.625 C313.89763849 94.74105002 318.97608921 93.44225235 323.6484375 93.01171875 C325.78955949 92.78544876 327.92660704 92.5212245 330.0625 92.25 C329.98128906 91.32960938 329.90007813 90.40921875 329.81640625 89.4609375 C329.22012409 77.5109563 332.07856669 68.42776746 340.25 59.25 C349.40909518 51.06704421 360.21469978 48.63123937 372.140625 48.91796875 C381.68193546 49.72574902 389.03227793 54.09171557 395.86328125 60.63671875 C403.77252321 70.03508974 405.9287585 80.30310846 405.28027344 92.20361328 C404.15276263 102.79867561 397.12007361 112.06699341 389.1484375 118.66015625 C372.74933045 130.61035713 350.21788653 138.20180903 330.0625 140.25 C330.10890625 141.2709375 330.1553125 142.291875 330.203125 143.34375 C331.29463068 179.07906054 319.11666682 216.49974442 295.0625 243.25 C294.37800781 244.01699219 293.69351563 244.78398437 292.98828125 245.57421875 C277.73186329 261.7330496 257.15385214 272.20419491 234.83129883 273.42700195 C206.37864184 273.95347574 179.18823807 271.94279971 157.32421875 251.5546875 C146.0625 240.07901554 146.0625 240.07901554 146.0625 234.25 C142.53420771 237.71506125 139.21937199 241.2968728 135.9375 245 C118.75271014 263.97322566 97.52765889 273.77233869 72.15991211 275.12475586 C54.18934453 275.78015521 37.96977073 272.38646918 24.0625 260.25 C21.2417537 257.36472683 18.63405787 254.35649346 16.0625 251.25 C15.4025 250.59 14.7425 249.93 14.0625 249.25 C13.41925781 249.8790625 12.77601563 250.508125 12.11328125 251.15625 C-8.68572971 270.85745297 -31.76933274 275.95590881 -59.50585938 275.33886719 C-72.85726393 274.85092429 -84.25593298 270.13453813 -94.9375 262.25 C-95.845 261.610625 -96.7525 260.97125 -97.6875 260.3125 C-100.59943065 257.64323024 -102.95608201 254.67321577 -104.9375 251.25 C-104.9375 250.59 -104.9375 249.93 -104.9375 249.25 C-105.75089844 249.8790625 -106.56429687 250.508125 -107.40234375 251.15625 C-130.06891511 268.2611319 -158.4957968 277.4494368 -187 273.5625 C-201.61989921 270.7851049 -213.10427211 263.15565499 -221.9375 251.25 C-223.80923215 247.99718393 -225.44314695 244.69132264 -226.9375 241.25 C-230.85299098 244.49902443 -234.46045484 247.78543373 -237.9375 251.5 C-254.37307695 268.10385931 -275.6122836 275.17679124 -298.5625 275.5 C-316.73479971 275.52820034 -332.44438343 270.81838306 -345.9765625 258.375 C-356.50251419 247.24624051 -359.69077447 233.56134488 -359.29676819 218.74607849 C-359.05242536 213.41368782 -358.06801686 208.48592584 -356.75561523 203.32446289 C-356.53234023 202.41890435 -356.30906523 201.51334581 -356.07902431 200.58034611 C-353.74493781 191.23852731 -351.11040077 181.98740875 -348.41015625 172.74609375 C-347.89317975 170.96325885 -347.37662389 169.18030192 -346.86045837 167.39723206 C-345.51758926 162.76290129 -344.16864487 158.13036116 -342.81842041 153.49816895 C-341.7288703 149.75636997 -340.64375362 146.01329242 -339.55886173 142.27014065 C-338.23997517 137.72001824 -336.91909121 133.17047663 -335.59765625 128.62109375 C-335.35546923 127.78715025 -335.1132822 126.95320675 -334.86375618 126.09399223 C-333.69935674 122.08753733 -332.53015987 118.08260301 -331.35159302 114.08029175 C-330.35585905 110.69685744 -329.38582011 107.30704051 -328.42648315 103.91311646 C-327.91665618 102.14260669 -327.40658194 100.37216811 -326.89624023 98.60180664 C-326.67381936 97.79805572 -326.45139849 96.99430479 -326.22223759 96.16619778 C-323.15489333 85.64160915 -318.2876873 77.50404676 -308.65625 71.9296875 C-300.11051181 67.96202334 -291.0133594 67.94504219 -282.125 70.875 C-273.11754564 74.61937783 -265.84930944 80.54734431 -261.90234375 89.6328125 C-258.79833066 98.84379087 -259.56984555 107.47493868 -262.1640625 116.703125 C-262.42240875 117.65801819 -262.680755 118.61291138 -262.94692993 119.59674072 C-265.77599516 129.92387573 -268.79228094 140.20036754 -271.7734375 150.484375 C-272.03594551 151.3899968 -272.29845352 152.29561859 -272.56891632 153.22868347 C-273.3775218 156.01717085 -274.18667569 158.80549838 -274.99609375 161.59375 C-275.26711788 162.52756752 -275.53814201 163.46138504 -275.817379 164.42350006 C-277.20939665 169.21592576 -278.60677991 174.00669705 -280.01318359 178.79492188 C-281.39444291 183.49919775 -282.76124216 188.20746948 -284.11876297 192.91864777 C-284.63256516 194.69182552 -285.15158646 196.46350052 -285.67618942 198.23351288 C-289.90186439 211.49704641 -289.90186439 211.49704641 -289.9375 225.25 C-288.3723581 227.90154031 -288.3723581 227.90154031 -285.9375 229.25 C-285.36 229.6625 -284.7825 230.075 -284.1875 230.5 C-278.92145869 232.2553471 -273.6726226 231.76846489 -268.7109375 229.34375 C-245.15710257 214.81715577 -233.12284724 184.0903103 -224.109375 159.24609375 C-217.42164556 140.90044378 -209.13629577 123.59612228 -196.9375 108.25 C-196.4940625 107.68845215 -196.050625 107.1269043 -195.59375 106.54833984 C-182.24452926 89.80966853 -164.81367439 74.61367665 -142.9375 71.25 C-119.84598568 69.37018828 -99.00383546 72.51722462 -78.9375 84.25 C-78.6075 84.58 -78.2775 84.91 -77.9375 85.25 C-73.98714557 73.8023969 -70.30512064 62.30921163 -66.96484375 50.66796875 C-66.46254745 48.92617844 -66.46254745 48.92617844 -65.95010376 47.14920044 C-64.57050823 42.35934658 -63.19391004 37.56886594 -61.84155273 32.77124023 C-60.83550935 29.2113761 -59.80820622 25.65821291 -58.77734375 22.10546875 C-58.48029037 21.03145309 -58.183237 19.95743744 -57.87718201 18.85087585 C-54.79963593 8.36686869 -48.72154826 -0.27622069 -39.08203125 -5.81640625 C-26.43970238 -11.59336448 -10.54124047 -8.76714281 0 0 Z M-154.26953125 142.96875 C-165.09486521 157.78572628 -175.55594134 177.23902486 -172.9375 196.25 C-171.4504493 204.14066276 -169.53223637 210.10581459 -162.9453125 215.015625 C-155.6300287 219.51295901 -148.56710875 218.71729154 -140.5 217.0625 C-128.94592472 214.19399401 -119.87195044 208.05990802 -113.3125 198.0625 C-103.20375733 181.18389323 -95.59289167 162.83914584 -100.1875 142.9375 C-102.46841264 134.84870797 -105.45252717 129.44289506 -112.9375 125.25 C-129.16242612 118.00056492 -144.71094258 130.6350872 -154.26953125 142.96875 Z M219.18359375 146.44921875 C207.00712127 162.52754429 198.61733984 183.99406659 200.0625 204.25 C201.06350823 210.42453591 204.13193298 213.98930323 208.96484375 217.83984375 C214.97915508 221.88298414 222.05545003 221.98858094 229.0625 221.25 C242.71745452 218.20270789 253.45790675 208.69352701 261.0625 197.25 C270.58950528 181.37030478 277.41080623 162.92230628 274.0625 144.25 C272.23589711 138.38215653 269.2347036 134.66560615 264.0625 131.25 C246.34960525 123.10009667 230.81246085 132.78892745 219.18359375 146.44921875 Z " fill="#ED203F" transform="translate(758.9375,170.75)"/>
<path d="M0 0 C7.88438611 6.47051416 13.90393423 13.58941851 18 23 C18.44859375 24.01835937 18.8971875 25.03671875 19.359375 26.0859375 C25.87843433 41.92341692 27.05014802 58.07248639 28 75 C28.04286133 75.75039551 28.08572266 76.50079102 28.12988281 77.27392578 C29.66222271 108.65593729 20.92238986 140.55023649 11 170 C10.49992432 171.4854834 10.49992432 171.4854834 9.98974609 173.00097656 C-1.69685425 207.0939616 -19.16283684 239.36195042 -41 268 C-41.8579533 269.15146364 -42.71478242 270.30376603 -43.5703125 271.45703125 C-56.89873362 289.27877606 -72.111515 306.49902404 -89 321 C-90.10567663 321.98920025 -91.20972549 322.98022171 -92.3125 323.97265625 C-111.45356841 341.06935724 -138.41932693 364.049713 -164 370 C-164.94875 370.226875 -165.8975 370.45375 -166.875 370.6875 C-180.99758295 372.09975829 -192.50188442 369.60668243 -204.296875 361.40234375 C-214.11748995 353.35172335 -219.8757473 342.43391413 -222 330 C-222.45009123 321.06848527 -221.68587232 312.27524129 -220.68652344 303.40820312 C-220.47670586 301.47087059 -220.47670586 301.47087059 -220.26264954 299.49440002 C-219.88245616 295.98640906 -219.49357665 292.4794332 -219.10278988 288.97260857 C-218.69030018 285.25914272 -218.28529118 281.5448597 -217.87921143 277.83068848 C-217.19465724 271.57978206 -216.50461686 265.32950067 -215.81103516 259.07958984 C-215.01836888 251.936404 -214.23333674 244.7924133 -213.45278335 237.64789438 C-212.69318988 230.69622085 -211.92885931 223.74507612 -211.16223907 216.79417419 C-210.84046727 213.87647995 -210.52006083 210.95864116 -210.20085907 208.04066467 C-208.46324141 192.17472395 -206.58810616 176.3413972 -204.31229782 160.54305267 C-201.51246908 140.9834924 -199.5056717 122.28876519 -211.890625 105.42578125 C-219.13692736 96.79583454 -228.65555225 91.09081228 -240 90 C-253.9153839 89.14846158 -264.69663725 92.35371333 -276.125 100.125 C-284.75424708 107.84338211 -289.32356737 119.50543395 -290.34375 130.80859375 C-290.64839067 143.41310149 -288.14798243 152.29768357 -280 162 C-276.07026598 166.11725244 -271.85958449 169.16607257 -266.9375 172 C-258.60239624 176.84509866 -252.36787067 183.57966644 -249.38671875 192.921875 C-247.33319276 203.95698438 -250.01872511 213.47759032 -255.8125 222.875 C-260.98636279 230.10034454 -267.32418159 233.36939424 -276 235 C-291.35410363 236.93789657 -304.30887048 229.69895625 -316.1015625 220.609375 C-321.99793818 215.90176267 -327.35602256 210.96800504 -332 205 C-332.60859863 204.24106445 -332.60859863 204.24106445 -333.22949219 203.46679688 C-352.8286212 178.8867517 -359.93479698 150.27564014 -356.6953125 119.06445312 C-353.54395846 96.79595647 -344.26239745 75.60980012 -329 59 C-328.55285645 58.51047852 -328.10571289 58.02095703 -327.64501953 57.51660156 C-307.46345508 35.66536425 -280.4087788 24.08394241 -250.859375 22.87109375 C-216.93285086 22.27935205 -190.72689577 32.74288474 -166 56 C-165.38640625 56.54914063 -164.7728125 57.09828125 -164.140625 57.6640625 C-148.01903602 72.67636784 -138.85462579 95.49072658 -136 117 C-135.88914062 117.7734375 -135.77828125 118.546875 -135.6640625 119.34375 C-131.31557603 156.482175 -138.79368513 195.94371776 -144.28456116 232.63858032 C-144.72227588 235.56509017 -145.15577824 238.49219994 -145.58862305 241.41943359 C-146.14240968 245.16448782 -146.71395549 248.90623933 -147.29614258 252.64697266 C-147.55086912 254.35049989 -147.80504809 256.05410911 -148.05859375 257.7578125 C-148.18428741 258.53515747 -148.30998108 259.31250244 -148.43948364 260.11340332 C-148.8794629 263.14751454 -149.1641141 265.50364283 -148.19165039 268.44482422 C-147.04485413 270.16530817 -147.04485413 270.16530817 -144.875 271.125 C-132.23889233 270.57560401 -114.36441901 246.82872204 -106 238 C-102.81625104 234.47641879 -99.89304975 230.76425223 -97 227 C-96.21625 226.02160156 -95.4325 225.04320312 -94.625 224.03515625 C-64.75298589 186.5099815 -45.31361947 140.46291127 -39 93 C-39.83015625 92.9071875 -40.6603125 92.814375 -41.515625 92.71875 C-53.58075876 90.22997801 -65.49458004 82.37247542 -72.796875 72.59375 C-74.37705419 70.12178651 -75.71416469 67.63596239 -77 65 C-77.4125 64.21625 -77.825 63.4325 -78.25 62.625 C-82.9423329 52.19759355 -82.70822517 38.20097923 -79.375 27.375 C-73.43539907 12.63982279 -63.35794417 0.25746133 -48.51171875 -6.05859375 C-32.27424193 -11.76217805 -14.14466449 -10.02160329 0 0 Z " fill="#ED203F" transform="translate(393,119)"/>
<path d="M0 0 C8.6723328 5.98006353 13.91684772 13.62548915 16 24 C16.86866843 33.5219424 15.05424838 42.43218953 9 50 C3.55766434 56.46543793 -2.65029542 60.34857969 -11 62 C-22.34924113 62.93808091 -31.22222733 60.93187288 -40.1796875 53.76953125 C-46.55359687 47.5734348 -50.18101897 40.16945718 -50.38037109 31.24023438 C-50.36155254 24.04812581 -49.99076677 18.17765754 -46 12 C-45.55269531 11.29359375 -45.10539062 10.5871875 -44.64453125 9.859375 C-34.53389191 -4.77801172 -15.64208468 -8.57417975 0 0 Z " fill="#ED203F" transform="translate(506,166)"/>
<path d="M0 0 C9.26543395 6.41598277 15.06419861 12.99133353 17.46875 24.15234375 C18.91560115 34.38095231 16.61959225 42.74463515 10.91796875 51.328125 C5.76042657 57.45753809 -1.00978884 61.63747921 -9.04394531 62.55126953 C-17.68309646 63.18018081 -25.59396173 63.14075319 -33.08203125 58.328125 C-34.01208984 57.8021875 -34.01208984 57.8021875 -34.9609375 57.265625 C-41.97944821 52.89989912 -45.77936169 46.26837718 -48.01953125 38.453125 C-50.05113556 28.93602623 -48.82085756 20.79375709 -44.08203125 12.328125 C-43.55802734 11.38646484 -43.55802734 11.38646484 -43.0234375 10.42578125 C-34.59994675 -2.89441001 -13.7920771 -7.57630541 0 0 Z " fill="#ED203F" transform="translate(872.08203125,163.671875)"/>
</svg>
