<?xml version="1.0" encoding="UTF-8"?>
<svg version="1.1" xmlns="http://www.w3.org/2000/svg" width="1400" height="1403">
<path d="M0 0 C6.76737828 7.38498368 9.3773032 16.39615459 9.01171875 26.1953125 C8.44312069 28.92798311 7.8135763 31.54630675 7.0625 34.2265625 C6.84225662 35.036698 6.62201324 35.8468335 6.39509583 36.68151855 C3.01354304 49.00125136 -0.59257546 61.25950178 -4.16813278 73.52403259 C-5.24813528 77.23065301 -6.32533417 80.93808776 -7.40258789 84.64550781 C-7.62418674 85.4081255 -7.84578558 86.17074318 -8.07409954 86.95647049 C-8.5299312 88.52519481 -8.98575405 90.0939217 -9.44156837 91.66265106 C-10.14332889 94.07743322 -10.84540202 96.49212431 -11.54753113 98.90679932 C-15.19804782 111.46321737 -18.83428259 124.02373615 -22.46484375 136.5859375 C-22.86976453 137.98694702 -22.86976453 137.98694702 -23.28286552 139.41625977 C-25.68732847 147.73591864 -28.09105222 156.05579102 -30.49453735 164.37573242 C-31.74574573 168.70684119 -32.99734379 173.03783719 -34.24917221 177.36876678 C-34.92424709 179.70475994 -35.59886918 182.0408835 -36.27346802 184.37701416 C-36.48383823 185.10450237 -36.69420845 185.83199059 -36.91095352 186.5815239 C-37.3224925 188.00597004 -37.73294531 189.43073049 -38.14223862 190.85582352 C-39.19738045 194.51798991 -40.28287664 198.16776616 -41.41238403 201.80773926 C-41.64503999 202.56774357 -41.87769594 203.32774788 -42.11740208 204.11078262 C-42.55911312 205.55009363 -43.00837135 206.98712089 -43.46687984 208.42116928 C-45.18251375 214.04809544 -45.841991 218.85884372 -43.80078125 224.4453125 C-41.65675352 227.69832009 -40.64833229 228.82279336 -36.98828125 230.1953125 C-26.5821325 231.53750685 -19.69877313 228.47451318 -11.55078125 222.2578125 C3.5119926 209.34385394 10.36036697 192.30050017 16.32421875 173.8828125 C16.7939549 172.45204348 17.26376468 171.02129864 17.73364258 169.59057617 C23.74786976 151.16461818 29.36481475 132.5795822 34.203125 113.80859375 C34.37889572 113.13083389 34.55466644 112.45307404 34.73576355 111.754776 C35.56018329 108.56967856 36.36852104 105.38302543 37.14916992 102.18676758 C40.00690951 90.95204544 43.77575232 79.64685472 54.01171875 73.1953125 C64.56474061 68.0141602 75.23703614 66.23474571 86.59765625 70.09375 C94.77539207 73.82533819 101.27349315 80.35777661 105.078125 88.46875 C109.97812569 102.04812412 104.30966245 116.26345936 100.38040161 129.3770752 C99.36874261 132.75534079 98.37346045 136.1380496 97.38256836 139.52246094 C95.98563297 144.29170659 94.58386552 149.05948545 93.17822266 153.82617188 C89.93172274 164.85213138 86.73644722 175.89254916 83.57818604 186.9440918 C82.58921584 190.39301186 81.58750858 193.83806735 80.58544922 197.28320312 C79.97810894 199.40473844 79.37146411 201.52647301 78.765625 203.6484375 C78.48510788 204.60143738 78.20459076 205.55443726 77.91557312 206.53631592 C76.04669858 213.15915008 74.48621931 219.14431362 77.69921875 225.5703125 C81.19940366 229.54349538 83.57271641 230.02742889 88.76171875 230.6328125 C96.15886135 230.41034205 102.58813611 225.3565824 107.8515625 220.51171875 C122.47938136 204.82582981 130.94528258 185.61098475 138.87890625 165.98486328 C153.5395068 129.88313442 174.82593466 94.86650562 211.01171875 77.1953125 C215.61340621 75.27835024 220.22682535 73.59339007 225.01171875 72.1953125 C225.64190918 72.00984863 226.27209961 71.82438477 226.92138672 71.63330078 C234.04793884 69.77758303 241.18464525 69.80977588 248.51171875 69.8203125 C249.17745911 69.82118866 249.84319946 69.82206482 250.52911377 69.82296753 C272.94846378 69.920279 294.75502263 75.93861638 311.01171875 92.1953125 C316.75573047 92.49762891 322.31742117 91.93346219 328.01171875 91.1953125 C327.93050781 90.27492188 327.84929688 89.35453125 327.765625 88.40625 C327.16934284 76.4562688 330.02778544 67.37307996 338.19921875 58.1953125 C347.44598756 49.93402698 358.14628092 47.68220431 370.1484375 47.91796875 C381.1921129 48.71079075 389.35421329 54.11379715 396.76171875 62.0078125 C403.78435036 70.36121676 405.76629184 79.51739141 405.01171875 90.1953125 C402.79686739 103.48442066 394.37202467 112.99794811 383.8828125 120.7734375 C369.96351283 129.97227902 345.56284777 139.1953125 329.01171875 139.1953125 C329.34171875 139.8553125 329.67171875 140.5153125 330.01171875 141.1953125 C330.11756816 160.58692479 326.67194006 179.99587055 320.01171875 198.1953125 C319.76583008 198.87899902 319.51994141 199.56268555 319.26660156 200.26708984 C308.97612405 228.39482544 289.54679917 252.63822123 262.12109375 265.46875 C236.93746556 276.52702251 204.41569025 274.96104505 178.88671875 265.8203125 C162.79330791 259.03764893 152.52141324 248.50032102 143.01171875 234.1953125 C141.99464844 235.44634766 141.99464844 235.44634766 140.95703125 236.72265625 C124.25352187 257.0314356 103.44858624 270.93239688 76.796875 273.6640625 C57.89484828 275.26324311 40.0059357 273.32263379 24.53515625 261.390625 C20.64808504 258.00899339 17.03889885 254.3761171 14.01171875 250.1953125 C14.01171875 249.5353125 14.01171875 248.8753125 14.01171875 248.1953125 C13.5734375 248.52402344 13.13515625 248.85273437 12.68359375 249.19140625 C11.3012958 250.22812971 9.91544408 251.260121 8.52734375 252.2890625 C6.78336852 253.6105841 5.06594484 254.96760126 3.37109375 256.3515625 C-17.20244643 272.76542516 -41.99452557 275.86150611 -67.59765625 273.921875 C-78.58606962 272.38117154 -88.12595539 267.73219335 -96.98828125 261.1953125 C-97.87515625 260.5765625 -98.76203125 259.9578125 -99.67578125 259.3203125 C-102.94888471 256.3125958 -105.43070503 252.81634825 -107.98828125 249.1953125 C-109.10009766 250.030625 -109.10009766 250.030625 -110.234375 250.8828125 C-132.93811795 267.33399466 -160.88103322 276.34914178 -189.05078125 272.5078125 C-203.67068046 269.7304174 -215.15505336 262.10096749 -223.98828125 250.1953125 C-225.8600134 246.94249643 -227.4939282 243.63663514 -228.98828125 240.1953125 C-231.85737773 242.53062358 -234.6217518 244.82878305 -237.23828125 247.4453125 C-238.14578125 248.3528125 -239.05328125 249.2603125 -239.98828125 250.1953125 C-240.63925781 250.8553125 -241.29023437 251.5153125 -241.9609375 252.1953125 C-258.87585898 268.46074617 -280.12109833 274.5784416 -303.22705078 274.5 C-320.46866194 274.11742531 -335.25771557 269.06249933 -348.02734375 257.3203125 C-358.55329544 246.19155301 -361.74155572 232.50665738 -361.34754944 217.69139099 C-361.10320661 212.35900032 -360.11879811 207.43123834 -358.80639648 202.26977539 C-358.58312148 201.36421685 -358.35984648 200.45865831 -358.12980556 199.52565861 C-355.79571906 190.18383981 -353.16118202 180.93272125 -350.4609375 171.69140625 C-349.943961 169.90857135 -349.42740514 168.12561442 -348.91123962 166.34254456 C-347.56837051 161.70821379 -346.21942612 157.07567366 -344.86920166 152.44348145 C-343.77965155 148.70168247 -342.69453487 144.95860492 -341.60964298 141.21545315 C-340.29075642 136.66533074 -338.96987246 132.11578913 -337.6484375 127.56640625 C-337.40625048 126.73246275 -337.16406345 125.89851925 -336.91453743 125.03930473 C-335.75013799 121.03284983 -334.58094112 117.02791551 -333.40237427 113.02560425 C-332.4066403 109.64216994 -331.43660136 106.25235301 -330.4772644 102.85842896 C-329.96743743 101.08791919 -329.45736319 99.31748061 -328.94702148 97.54711914 C-328.72460061 96.74336822 -328.50217974 95.93961729 -328.27301884 95.11151028 C-325.20567458 84.58692165 -320.33846855 76.44935926 -310.70703125 70.875 C-302.16129306 66.90733584 -293.06414065 66.89035469 -284.17578125 69.8203125 C-275.26266086 73.5125208 -266.98291929 79.91094901 -263.17578125 89.0078125 C-258.08650168 104.94609521 -265.0092215 121.23003488 -269.49095726 136.6107769 C-270.42474211 139.81740845 -271.35162299 143.02596531 -272.27668762 146.23512268 C-274.9047355 155.34831004 -277.54351288 164.45836698 -280.19018555 173.56616211 C-281.81598773 179.16268189 -283.43274998 184.76174892 -285.04400063 190.36247444 C-285.65729174 192.48731275 -286.27408645 194.61114314 -286.8944912 196.73391533 C-287.75998904 199.69580626 -288.61399928 202.66079066 -289.46557617 205.62670898 C-289.72268372 206.4959198 -289.97979126 207.36513062 -290.24468994 208.26068115 C-291.85686861 213.93512744 -293.23633523 219.30508223 -290.80078125 224.9453125 C-288.65205849 227.61269247 -287.15580374 228.85791412 -283.98828125 230.1953125 C-277.39482919 230.83338851 -272.45316119 229.76189023 -267.08984375 225.7890625 C-246.31936759 208.38455283 -235.20382057 183.11884252 -226.16015625 158.19140625 C-219.47242681 139.84575628 -211.18707702 122.54143478 -198.98828125 107.1953125 C-198.54484375 106.63376465 -198.10140625 106.0722168 -197.64453125 105.49365234 C-184.29531051 88.75498103 -166.86445564 73.55898915 -144.98828125 70.1953125 C-121.89676693 68.31550078 -101.05461671 71.46253712 -80.98828125 83.1953125 C-80.65828125 83.5253125 -80.32828125 83.8553125 -79.98828125 84.1953125 C-76.03792682 72.7477094 -72.35590189 61.25452413 -69.015625 49.61328125 C-68.5133287 47.87149094 -68.5133287 47.87149094 -68.00088501 46.09451294 C-66.62128948 41.30465908 -65.24469129 36.51417844 -63.89233398 31.71655273 C-62.8862906 28.1566886 -61.85898747 24.60352541 -60.828125 21.05078125 C-60.53107162 19.97676559 -60.23401825 18.90274994 -59.92796326 17.79618835 C-56.85041718 7.31218119 -50.77232951 -1.33090819 -41.1328125 -6.87109375 C-27.70342879 -13.00769955 -11.10306409 -9.20936375 0 0 Z M-156.74755859 143.47705078 C-163.3871926 152.67219918 -168.52471681 162.36803543 -171.98828125 173.1953125 C-172.23320313 173.948125 -172.478125 174.7009375 -172.73046875 175.4765625 C-175.69413696 186.35687868 -175.09480176 198.12265692 -169.98828125 208.1953125 C-167.16872514 212.5610768 -164.03956037 215.03793077 -159.17578125 216.8828125 C-146.72503489 218.66149055 -134.9728721 214.91785228 -124.90625 207.703125 C-111.39336739 196.90315382 -103.30361319 176.95390557 -100.98828125 160.1953125 C-100.20213588 149.40093189 -101.43481057 138.11531425 -107.98828125 129.1953125 C-113.39197607 124.26608845 -119.35422309 121.64597157 -126.7890625 121.88671875 C-139.86548765 123.72159901 -149.15925543 133.42366284 -156.74755859 143.47705078 Z M216.01171875 148.1953125 C205.35155729 163.40825126 197.22458641 184.49162607 199.01171875 203.1953125 C200.42374536 209.98179696 203.92445449 214.08693691 209.57421875 217.9453125 C215.82045648 221.14851134 223.03187982 221.07412363 229.7890625 219.58203125 C244.47641856 214.79863121 255.24650803 203.67341442 262.3503418 190.25488281 C269.87637893 175.29854613 276.47562342 157.53531712 271.2578125 140.7734375 C268.84660325 135.40622696 265.32923526 131.72173939 259.90625 129.2265625 C241.56323404 122.40712799 226.92645178 134.2910662 216.01171875 148.1953125 Z " fill="#EC1F3E" transform="translate(881.98828125,553.8046875)"/>
<path d="M0 0 C17.42778442 14.46936423 23.16897157 36.35532508 25.20556641 58.09277344 C26.65859473 79.87759224 25.9975055 101.73063596 21.40625 123.1015625 C21.17019043 124.20306641 20.93413086 125.30457031 20.69091797 126.43945312 C6.92447484 188.74791911 -22.55152588 246.78702049 -66.171875 293.49609375 C-68.24074188 295.72179409 -70.24234558 297.98174633 -72.21875 300.2890625 C-77.77959196 306.68602151 -83.82764482 312.60793627 -90.26953125 318.11328125 C-92.05347196 319.63937507 -93.81817575 321.18797958 -95.57421875 322.74609375 C-114.63885489 339.56617698 -141.27506701 362.21221667 -166.59375 368.1015625 C-167.5425 368.3284375 -168.49125 368.5553125 -169.46875 368.7890625 C-183.59133295 370.20132079 -195.09563442 367.70824493 -206.890625 359.50390625 C-216.71123995 351.45328585 -222.4694973 340.53547663 -224.59375 328.1015625 C-225.04384123 319.17004777 -224.27962232 310.37680379 -223.28027344 301.50976562 C-223.07045586 299.57243309 -223.07045586 299.57243309 -222.85639954 297.59596252 C-222.47620616 294.08797156 -222.08732665 290.5809957 -221.69653988 287.07417107 C-221.28405018 283.36070522 -220.87904118 279.6464222 -220.47296143 275.93225098 C-219.78840724 269.68134456 -219.09836686 263.43106317 -218.40478516 257.18115234 C-217.61211888 250.0379665 -216.82708674 242.8939758 -216.04653335 235.74945688 C-215.28693988 228.79778335 -214.52260931 221.84663862 -213.75598907 214.89573669 C-213.43421727 211.97804245 -213.11381083 209.06020366 -212.79460907 206.14222717 C-211.05699141 190.27628645 -209.18185616 174.4429597 -206.90604782 158.64461517 C-204.10621908 139.0850549 -202.0994217 120.39032769 -214.484375 103.52734375 C-221.73067736 94.89739704 -231.24930225 89.19237478 -242.59375 88.1015625 C-256.5091339 87.25002408 -267.29038725 90.45527583 -278.71875 98.2265625 C-287.34799708 105.94494461 -291.91731737 117.60699645 -292.9375 128.91015625 C-293.24214067 141.51466399 -290.74173243 150.39924607 -282.59375 160.1015625 C-278.66401598 164.21881494 -274.45333449 167.26763507 -269.53125 170.1015625 C-261.19614624 174.94666116 -254.96162067 181.68122894 -251.98046875 191.0234375 C-249.92694276 202.05854688 -252.61247511 211.57915282 -258.40625 220.9765625 C-263.58011279 228.20190704 -269.91793159 231.47095674 -278.59375 233.1015625 C-293.94785363 235.03945907 -306.90262048 227.80051875 -318.6953125 218.7109375 C-324.59168818 214.00332517 -329.94977256 209.06956754 -334.59375 203.1015625 C-335.20234863 202.34262695 -335.20234863 202.34262695 -335.82324219 201.56835938 C-355.4223712 176.9883142 -362.52854698 148.37720264 -359.2890625 117.16601562 C-356.13770846 94.89751897 -346.85614745 73.71136262 -331.59375 57.1015625 C-331.14660645 56.61204102 -330.69946289 56.12251953 -330.23876953 55.61816406 C-310.05720508 33.76692675 -283.0025288 22.18550491 -253.453125 20.97265625 C-219.52618371 20.38090727 -193.32077905 30.84638042 -168.59375 54.1015625 C-167.58054687 55.00068359 -167.58054687 55.00068359 -166.546875 55.91796875 C-154.34448001 67.21738651 -146.63582797 82.84460797 -141.84375 98.5390625 C-141.64483154 99.18214355 -141.44591309 99.82522461 -141.2409668 100.48779297 C-137.87467499 112.22865629 -137.21345975 124.26492535 -137.28125 136.4140625 C-137.28448273 137.47577164 -137.28448273 137.47577164 -137.28778076 138.55892944 C-137.45054539 172.4652467 -142.80688085 206.1677638 -147.87109375 239.625 C-148.05873291 240.86717285 -148.24637207 242.1093457 -148.43969727 243.38916016 C-148.7784336 245.60603081 -149.12339257 247.8219651 -149.47631836 250.03662109 C-151.27143052 259.23427189 -151.27143052 259.23427189 -149.59375 268.1015625 C-147.47273936 269.31515474 -147.47273936 269.31515474 -144.59375 269.1015625 C-127.64929044 260.15865329 -111.12243569 240.10195468 -99.59375 225.1015625 C-98.81 224.12316406 -98.02625 223.14476562 -97.21875 222.13671875 C-67.34673589 184.611544 -47.90736947 138.56447377 -41.59375 91.1015625 C-42.42390625 91.00875 -43.2540625 90.9159375 -44.109375 90.8203125 C-56.17450876 88.33154051 -68.08833004 80.47403792 -75.390625 70.6953125 C-76.97080419 68.22334901 -78.30791469 65.73752489 -79.59375 63.1015625 C-80.00625 62.3178125 -80.41875 61.5340625 -80.84375 60.7265625 C-85.5360829 50.29915605 -85.30197517 36.30254173 -81.96875 25.4765625 C-76.02914907 10.74138529 -65.95169417 -1.64097617 -51.10546875 -7.95703125 C-33.25642554 -14.22669517 -15.12086583 -11.06738071 0 0 Z " fill="#EC1F3E" transform="translate(516.59375,502.8984375)"/>
<path d="M0 0 C7.2638949 4.6473976 13.48864894 10.13930568 16.27734375 18.45703125 C16.51066406 19.1428125 16.74398437 19.82859375 16.984375 20.53515625 C19.28166211 28.77574744 18.68037954 37.18823479 14.96484375 44.89453125 C14.09705822 46.43154122 13.20457685 47.95513572 12.27734375 49.45703125 C11.72046875 50.36453125 11.16359375 51.27203125 10.58984375 52.20703125 C2.28339421 60.28898216 -7.10145403 62.85974006 -18.31787109 62.82495117 C-24.21465076 62.69055708 -28.70609755 61.68120428 -33.72265625 58.45703125 C-34.65271484 57.93109375 -34.65271484 57.93109375 -35.6015625 57.39453125 C-42.62007321 53.02880537 -46.41998669 46.39728343 -48.66015625 38.58203125 C-50.69176056 29.06493248 -49.46148256 20.92266334 -44.72265625 12.45703125 C-44.19865234 11.51537109 -44.19865234 11.51537109 -43.6640625 10.5546875 C-34.92798253 -3.25980573 -14.29678121 -6.91622065 0 0 Z " fill="#EC1F3E" transform="translate(993.72265625,545.54296875)"/>
<path d="M0 0 C9.86457443 7.34269876 15.11987265 14.79433457 17 27 C17.5770225 36.40284388 14.25599217 45.02871503 8.140625 52.171875 C-0.14172984 59.92415913 -9.5296824 62.38904855 -20.61328125 62.27734375 C-28.80607095 61.60642326 -36.13629294 57.70012725 -42 52 C-49.77984288 42.37028337 -50.95705725 32.99910523 -50 21 C-49.1533035 17.59878169 -47.89592789 14.93487289 -46 12 C-45.55269531 11.29359375 -45.10539063 10.5871875 -44.64453125 9.859375 C-34.56790607 -4.72876869 -15.59318769 -8.65006714 0 0 Z " fill="#ED1F3E" transform="translate(627,548)"/>
</svg>
