<?xml version="1.0" encoding="UTF-8"?>
<svg version="1.1" xmlns="http://www.w3.org/2000/svg" width="900" height="900">
<path d="M0 0 C13.18001317 12.12561212 22.47049741 30.93435982 23.92285156 48.81445312 C24.89462213 72.74124097 20.28374398 94.03871952 3.703125 112.109375 C3.03925781 112.86476563 2.37539063 113.62015625 1.69140625 114.3984375 C-12.88375296 130.07818363 -33.21199508 137.93434152 -54.26953125 139.0703125 C-75.95598682 139.56594265 -95.89578985 131.35412614 -111.83203125 116.79296875 C-128.27328567 100.94687287 -136.48501206 80.83283999 -137.39453125 58.18359375 C-137.26872306 35.57640919 -127.37971288 15.78990598 -111.98828125 -0.3046875 C-79.53709011 -31.31715588 -32.85779958 -27.04621598 0 0 Z M-106.296875 30.109375 C-106.3987479 36.37143981 -106.46853781 42.63328892 -106.51660156 48.89599609 C-106.53664968 51.02400702 -106.56389554 53.15196332 -106.59863281 55.27978516 C-106.64745048 58.34811933 -106.66991226 61.41572173 -106.6875 64.484375 C-106.70814514 65.42740479 -106.72879028 66.37043457 -106.75006104 67.34204102 C-106.75203801 73.23341833 -106.07204644 78.36956636 -102.296875 83.109375 C-98.96868878 85.39654498 -96.02683472 85.35229484 -92.05957031 85.33642578 C-90.79856506 85.33627472 -89.53755981 85.33612366 -88.23834229 85.33596802 C-86.86722658 85.32575556 -85.49611249 85.31532358 -84.125 85.3046875 C-82.71824342 85.30095557 -81.31148423 85.29810945 -79.90472412 85.29611206 C-76.20901261 85.28848976 -72.51345925 85.26885345 -68.81781006 85.2467041 C-65.04392638 85.22621536 -61.27001706 85.21710388 -57.49609375 85.20703125 C-50.09628221 85.18560612 -42.6966008 85.15148726 -35.296875 85.109375 C-35.19537115 78.50753933 -35.12536606 71.90590524 -35.07714844 65.3034668 C-35.0570456 63.05794759 -35.02975895 60.81248065 -34.99511719 58.56713867 C-34.9465419 55.3375966 -34.92389263 52.10874725 -34.90625 48.87890625 C-34.88560486 47.87664505 -34.86495972 46.87438385 -34.84368896 45.8417511 C-34.8423562 41.69248263 -34.91541891 38.85646446 -36.82128906 35.1237793 C-44.13056626 29.17616133 -51.98301013 29.70483977 -60.984375 29.81640625 C-62.28262207 29.82065109 -63.58086914 29.82489594 -64.91845703 29.82926941 C-68.34460257 29.84064078 -71.77035734 29.87003957 -75.1963501 29.90338135 C-78.7024609 29.9342502 -82.20863578 29.9478104 -85.71484375 29.96289062 C-92.57567981 29.99491827 -99.43625857 30.04601927 -106.296875 30.109375 Z M-11.15625 33.62890625 C-12.33574219 34.42071289 -12.33574219 34.42071289 -13.5390625 35.22851562 C-14.36664063 35.78732422 -15.19421875 36.34613281 -16.046875 36.921875 C-17.66593146 38.01281066 -19.28570404 39.10268441 -20.90625 40.19140625 C-21.6691333 40.71629639 -22.4320166 41.24118652 -23.21801758 41.78198242 C-25.296875 43.109375 -25.296875 43.109375 -28.29296875 44.2734375 C-31.41411365 47.13296597 -31.28185985 50.29651626 -31.55078125 54.40112305 C-32.0830407 63.7185147 -32.0830407 63.7185147 -28.83349609 72.13378906 C-24.54768602 75.88543891 -19.48581246 77.8889264 -14.296875 80.109375 C-11.656875 81.759375 -9.016875 83.409375 -6.296875 85.109375 C-6.296875 67.289375 -6.296875 49.469375 -6.296875 31.109375 C-8.15923635 31.109375 -9.66308839 32.62177713 -11.15625 33.62890625 Z " fill="#008BFB" transform="translate(289.296875,389.890625)"/>
<path d="M0 0 C3.06919299 -1.46420216 5.88354867 -3.17423482 8.75 -5 C18.58637824 -10.84480446 30.00451011 -11.64845285 41.1640625 -9.34765625 C51.31001946 -6.01806756 57.8420177 -0.04870155 63.4921875 8.86328125 C67.88785327 18.00763259 68.42354524 26.44606047 68.328125 36.50390625 C68.32506048 37.87727144 68.32318964 39.25063977 68.32244873 40.62400818 C68.31788089 43.47903641 68.30358079 46.333777 68.28125 49.1887207 C68.25272759 52.85405523 68.24201057 56.51916675 68.2375679 60.18460178 C68.23342424 63.00949844 68.22361957 65.83434989 68.21169281 68.65922356 C68.203217 70.66958484 68.19672093 72.67995415 68.19024658 74.69032288 C68.18063904 75.89925705 68.17103149 77.10819122 68.16113281 78.35375977 C68.15089081 79.95732079 68.15089081 79.95732079 68.14044189 81.59327698 C68 84 68 84 67 85 C60.74646612 85.0588845 55.7609008 84.30748167 51 80 C47.10249244 74.72395279 45.88542051 69.57467122 45.8581543 63.12133789 C45.84760262 61.70945946 45.84760262 61.70945946 45.83683777 60.26905823 C45.83267349 59.26374557 45.82850922 58.25843292 45.82421875 57.22265625 C45.80102764 55.07876615 45.7769106 52.93488589 45.75195312 50.79101562 C45.71681107 47.42253948 45.6874679 44.05442842 45.67407227 40.68579102 C45.65858843 37.42680185 45.61838671 34.16886647 45.57421875 30.91015625 C45.57612717 29.90686783 45.57803558 28.90357941 45.58000183 27.86988831 C45.47660783 21.94871137 44.95619732 18.50334542 41 14 C35.37407007 10.29200073 29.85407563 9.56463253 23.3125 10.5625 C18.34894977 12.7164935 15.86531701 15.81901841 13.88221741 20.81730652 C12.97793863 24.07958876 12.73019741 26.79497004 12.69702148 30.1730957 C12.68037949 31.37065994 12.66373749 32.56822418 12.64659119 33.80207825 C12.63817703 35.08040024 12.62976288 36.35872223 12.62109375 37.67578125 C12.60490382 39.01003723 12.58772227 40.34428151 12.56959534 41.67851257 C12.52409727 45.17476002 12.48918379 48.67102333 12.45739746 52.16741943 C12.41153479 57.11172433 12.35658808 62.05591686 12.29469299 67.00004578 C12.26263486 69.63085593 12.2357768 72.26173529 12.21446228 74.89265442 C12.20097244 76.07445786 12.1874826 77.25626129 12.17358398 78.47387695 C12.15931618 80.04224052 12.15931618 80.04224052 12.14476013 81.64228821 C12 84 12 84 11 85 C5.56802093 84.95976312 0.19046577 84.71155539 -4 81 C-8.88617532 75.03816173 -9.71876017 69.99162422 -9.63671875 62.4375 C-9.65228569 60.95141235 -9.65228569 60.95141235 -9.66816711 59.43530273 C-9.69769838 56.28984362 -9.69449767 53.14557175 -9.6875 50 C-9.69642711 46.85476216 -9.71250549 43.709837 -9.7389679 40.56469727 C-9.75374497 38.61471773 -9.7577691 36.66461627 -9.74919128 34.71459961 C-9.77692353 28.06604558 -10.1501674 21.97294525 -13.75 16.1875 C-17.97620866 12.07868603 -21.61766935 10.80167112 -27.4375 10.5625 C-32.87282771 10.75450886 -35.80069276 11.48629395 -40 15 C-44.01479568 21.37632178 -44.56694779 27.50948615 -44.50390625 34.87890625 C-44.51332748 35.89041245 -44.52274872 36.90191864 -44.53245544 37.94407654 C-44.56092878 41.15042751 -44.56419003 44.35603334 -44.5625 47.5625 C-44.5661194 50.77242764 -44.57576524 53.98181872 -44.60325623 57.19163513 C-44.61991566 59.18054988 -44.62302299 61.16964112 -44.61024475 63.15858459 C-44.66227238 70.04674623 -45.2873162 76.21400042 -50.3125 81.375 C-55.87781057 84.74007151 -59.319252 85 -66 85 C-66 53.65 -66 22.3 -66 -10 C-58.88727852 -10 -57.06734147 -9.30264389 -51.4296875 -5.8984375 C-48.99342304 -4.72345903 -48.99342304 -4.72345903 -46.4140625 -5.75390625 C-45.61742187 -6.16511719 -44.82078125 -6.57632812 -44 -7 C-27.84656546 -14.2113547 -13.73305527 -10.72394759 0 0 Z " fill="#0089FA" transform="translate(679,411)"/>
<path d="M0 0 C10.32700287 -0.09275657 20.65390633 -0.16379377 30.98124123 -0.20724869 C35.77686929 -0.22810691 40.57221196 -0.25639228 45.36767578 -0.30175781 C49.99720432 -0.34527858 54.62645865 -0.36915039 59.25617599 -0.37950897 C61.02080984 -0.38688917 62.78542899 -0.40130111 64.54994583 -0.42292023 C67.02532409 -0.45203762 69.49957518 -0.45595261 71.97509766 -0.45410156 C73.0648288 -0.47567322 73.0648288 -0.47567322 74.17657471 -0.49768066 C80.45342696 -0.44702722 83.78984585 2.08065561 88.375 6.0625 C90.97770109 10.76738274 91.28448213 14.76973274 90 20 C86.71728487 24.81839319 82.61874453 28.66584684 78.40625 32.66796875 C77.21558544 33.83809175 76.02734496 35.01068605 74.84143066 36.18562317 C71.72841063 39.25683999 68.58379759 42.29357701 65.43121338 45.32409668 C62.21417617 48.42817513 59.0284334 51.5640191 55.83984375 54.69726562 C49.58994306 60.82954239 43.30627757 66.92571716 37 73 C38.29099609 73.01458252 39.58199219 73.02916504 40.91210938 73.04418945 C45.72813824 73.1024131 50.54371129 73.17964414 55.359375 73.26245117 C57.4387265 73.2955876 59.51816552 73.32365424 61.59765625 73.34643555 C64.59673146 73.38018951 67.59501287 73.4325156 70.59375 73.48828125 C71.97548401 73.49786613 71.97548401 73.49786613 73.38513184 73.50764465 C79.47092048 73.64448648 85.86846958 74.08778081 90.56066895 78.45137024 C93.80239602 82.24474993 95.1407522 84.65568815 95.125 89.5625 C95.12886719 90.77099609 95.12886719 90.77099609 95.1328125 92.00390625 C95 94 95 94 94 95 C91.77812542 95.11022192 89.55269955 95.14914879 87.328125 95.16113281 C86.63042496 95.16609772 85.93272491 95.17106262 85.21388245 95.17617798 C82.8925784 95.19084672 80.5713429 95.19761275 78.25 95.203125 C76.63631183 95.20887683 75.02262368 95.21463456 73.40893555 95.22039795 C70.01594728 95.2309242 66.62298278 95.23675482 63.22998047 95.24023438 C58.90032251 95.24569333 54.57098316 95.26965817 50.24142456 95.29820633 C46.90235512 95.31692288 43.56336061 95.32204329 40.22424316 95.32357025 C38.62958045 95.32658189 37.03491858 95.33455966 35.44030762 95.34775543 C16.17959031 95.49563663 16.17959031 95.49563663 10.43310547 90.68951416 C6.78578984 86.69250711 5.51880427 82.5205047 4.45556641 77.35498047 C5.33998253 71.9049148 9.16208709 69.06292811 13.0234375 65.3203125 C13.83994781 64.50754852 14.65645813 63.69478455 15.49771118 62.85739136 C17.22424796 61.14428986 18.95796075 59.4383948 20.69824219 57.73925781 C23.37185125 55.12807523 26.02341436 52.49603849 28.671875 49.859375 C30.35032073 48.19926441 32.02996778 46.54036734 33.7109375 44.8828125 C34.50994476 44.09230499 35.30895203 43.30179749 36.13217163 42.48733521 C36.87278839 41.76593353 37.61340515 41.04453186 38.37646484 40.30126953 C39.02932465 39.66206573 39.68218445 39.02286194 40.35482788 38.36428833 C42 37 42 37 44 37 C44.20496094 36.45730469 44.40992188 35.91460937 44.62109375 35.35546875 C46.54064581 32.07646057 49.24497812 29.80048716 52.0625 27.3125 C52.61744141 26.81427734 53.17238281 26.31605469 53.74414062 25.80273438 C55.15983295 24.53188755 56.57960817 23.26559214 58 22 C58.495 21.505 58.495 21.505 59 21 C57.74453369 20.98541748 56.48906738 20.97083496 55.19555664 20.95581055 C50.50435976 20.897511 45.81362706 20.82028141 41.12280273 20.73754883 C39.09879126 20.70444772 37.07469076 20.67637043 35.05053711 20.65356445 C32.12836027 20.61974463 29.20698842 20.56741659 26.28515625 20.51171875 C25.39103531 20.50532883 24.49691437 20.4989389 23.57569885 20.49235535 C16.13958206 20.32124452 9.04365461 19.31716139 3.5 14 C-0.45259498 9.25688602 -0.09641393 5.88124997 0 0 Z " fill="#0088F8" transform="translate(327,401)"/>
<path d="M0 0 C0.89847656 0.4021875 1.79695312 0.804375 2.72265625 1.21875 C16.07040911 7.82836627 22.32163512 17.7456534 28 31 C31.14676954 41.72335463 29.83438486 55.06430105 25 65 C23.1893982 68.16613255 21.19345598 71.08945264 19 74 C18.4225 74.86625 17.845 75.7325 17.25 76.625 C8.65992787 85.69229836 -3.38279492 91.2995873 -15.7890625 92.203125 C-30.3843804 92.44436992 -42.7671745 88.34052426 -53.375 78.125 C-63.19219837 67.71659159 -67.42071489 56.39091689 -67.20703125 42.0546875 C-66.33975427 29.25826114 -61.51996526 17.29458401 -51.93359375 8.51953125 C-48.1755012 5.56620195 -44.24739229 3.18347426 -40 1 C-39.20207031 0.58363281 -38.40414062 0.16726563 -37.58203125 -0.26171875 C-26.56997039 -5.12751308 -10.96223939 -5.01565199 0 0 Z M-40.45703125 26.0390625 C-46.41859077 33.61552549 -47.08129406 41.56325182 -46 51 C-44.03499059 58.22955333 -39.98268915 63.71538703 -34.0625 68.25 C-26.80105943 72.39939461 -19.76563308 73.01964572 -11.5703125 71.5703125 C-4.61872782 69.62194447 0.53979644 65.63841519 4.57421875 59.671875 C8.8644616 51.85355278 10.1471795 43.83758849 7.8515625 35.16015625 C5.28293317 28.6443213 -0.13607901 22.7730967 -6 19 C-18.63603985 13.77376255 -31.33709194 16.14695442 -40.45703125 26.0390625 Z " fill="#008AFA" transform="translate(581,404)"/>
<path d="M0 0 C0.93392578 0.70382812 0.93392578 0.70382812 1.88671875 1.421875 C2.75296875 1.999375 3.61921875 2.576875 4.51171875 3.171875 C12.84670106 11.06817403 19.23234624 22.86129398 19.88671875 34.421875 C19.93699219 35.081875 19.98726562 35.741875 20.0390625 36.421875 C20.60652271 49.13298371 15.81776087 61.12257497 7.63671875 70.671875 C-1.12050968 79.89153134 -12.19360379 85.72949483 -25.0234375 86.625 C-40.24234223 86.85130342 -52.07258641 82.6897149 -63.3046875 72.31640625 C-71.75518723 63.46437089 -76.63836481 51.51559532 -77.18359375 39.328125 C-76.8920393 27.27720775 -73.0013145 16.52637603 -65.11328125 7.421875 C-64.58863281 6.81472656 -64.06398438 6.20757812 -63.5234375 5.58203125 C-47.09609235 -12.08219636 -19.33204367 -14.02180546 0 0 Z M-49.48828125 19.609375 C-54.92711102 26.74783908 -57.22743188 34.5229539 -56.11328125 43.421875 C-54.81202923 51.49240613 -50.20794728 57.1587293 -44.11328125 62.421875 C-37.6008716 66.50130713 -30.66232538 67.45865359 -23.11328125 66.421875 C-14.49625476 64.37932057 -8.67433133 59.64273655 -3.73046875 52.39453125 C0.13290553 45.14057325 0.3388593 36.34710747 -1.9609375 28.546875 C-5.27361502 21.18037855 -10.46526364 16.72980451 -17.17578125 12.484375 C-28.46723188 8.36662122 -41.25808355 10.99115309 -49.48828125 19.609375 Z " fill="#008AFB" transform="translate(492.11328125,409.578125)"/>
</svg>
